<svg width="216" height="216" viewBox="0 0 216 216" fill="none" xmlns="http://www.w3.org/2000/svg">
<rect width="216" height="216" rx="64.5172" fill="#FFF4E4"/>
<mask id="mask0_0_4" style="mask-type:luminance" maskUnits="userSpaceOnUse" x="0" y="0" width="216" height="216">
<rect width="216" height="216" rx="64.5172" fill="white"/>
</mask>
<g mask="url(#mask0_0_4)">
<path fill-rule="evenodd" clip-rule="evenodd" d="M162.46 174.926C155.095 161.088 107.741 152.405 107.741 152.405C107.741 152.405 60.3871 161.088 53.022 174.926C47.5778 194.129 43.0239 218.529 43.0239 218.529H172.458C172.458 218.529 169.384 192.367 162.46 174.926Z" fill="#FFD28D"/>
<path fill-rule="evenodd" clip-rule="evenodd" d="M107.741 152.405C107.741 152.405 155.095 161.088 162.46 174.926C169.384 192.367 172.458 218.529 172.458 218.529H107.741V152.405Z" fill="#FEC368"/>
<path fill-rule="evenodd" clip-rule="evenodd" d="M95.0791 167.88H120.403V124.267H95.0791V167.88Z" fill="#FFD28D"/>
<path fill-rule="evenodd" clip-rule="evenodd" d="M107.741 167.88H120.403V124.267H107.741V167.88Z" fill="#FEC368"/>
<path fill-rule="evenodd" clip-rule="evenodd" d="M107.741 153.811C102.262 152.407 96.769 149.052 95.0791 144.144V124.267H107.741V153.811Z" fill="#FFD28D"/>
<path fill-rule="evenodd" clip-rule="evenodd" d="M113.298 155.218C111.555 155.218 109.65 154.96 107.741 154.46V124.267H120.403V154.02C118.116 154.795 115.741 155.218 113.298 155.218Z" fill="#FEC368"/>
<path fill-rule="evenodd" clip-rule="evenodd" d="M141.506 96.37C141.506 69.3096 126.704 53.9219 108.444 53.9219C90.1863 53.9219 75.3823 69.3096 75.3823 96.37C75.3823 132.769 90.1863 145.37 108.444 145.37C126.704 145.37 141.506 131.252 141.506 96.37Z" fill="#FFD28D"/>
<path fill-rule="evenodd" clip-rule="evenodd" d="M136.829 115.777C130.697 115.149 126.558 108.677 127.597 101.33C128.621 93.9775 134.429 88.5181 140.562 89.1429C146.69 89.7694 150.824 96.2369 149.789 103.591C148.76 110.944 142.96 116.399 136.829 115.777Z" fill="#FFD28D"/>
<path fill-rule="evenodd" clip-rule="evenodd" d="M67.0994 103.591C66.0655 96.2369 70.1979 89.7694 76.3223 89.1429C82.458 88.5181 88.2651 93.9775 89.2926 101.33C90.3281 108.677 86.1861 115.149 80.0585 115.777C73.9276 116.399 68.1285 110.944 67.0994 103.591Z" fill="#FFD28D"/>
<path fill-rule="evenodd" clip-rule="evenodd" d="M141.507 96.37C141.507 69.3096 126.389 53.9219 107.741 53.9219V145.37C126.389 145.37 141.507 131.252 141.507 96.37Z" fill="#FEC368"/>
<path fill-rule="evenodd" clip-rule="evenodd" d="M138.543 118.39C136.743 123.374 133.698 129.364 128.196 129.364C121.317 129.364 116.4 123.86 108.51 123.86L108.445 123.863L108.376 123.86C100.489 123.86 95.572 129.364 88.6935 129.364C83.1916 129.364 80.1483 123.374 78.3479 118.39L76.7896 108.791V120.278C76.7896 120.278 79.4042 133.807 84.4217 137.075C88.5103 140.651 101.851 146.777 108.375 146.777H108.376L108.445 146.774L108.51 146.777H108.513C115.04 146.777 128.381 140.651 132.466 137.075C137.485 133.807 140.1 120.278 140.1 120.278V108.791L138.543 118.39Z" fill="#F77C42"/>
<path fill-rule="evenodd" clip-rule="evenodd" d="M133.201 97.5356C129.936 91.9548 129.344 85.1992 129.344 85.1992C129.344 85.1992 134.98 91.074 144.174 95.7739C143.79 80.1717 143.408 77.1918 143.79 62.3327C144.173 47.4736 96.7161 39.6726 92.2651 59.9412C92.2651 59.9412 98.4952 84.9066 133.201 97.5356Z" fill="#F77C42"/>
<path fill-rule="evenodd" clip-rule="evenodd" d="M93.6723 60.3178C84.7839 56.4114 79.9259 70.9782 78.1965 77.7549C77.414 80.8208 76.7091 80.9998 75.3827 89.094C74.604 93.8457 80.7471 94.7216 80.7471 94.7216C80.7471 94.7216 83.252 66.5486 93.6723 60.3178Z" fill="#F77C42"/>
<path fill-rule="evenodd" clip-rule="evenodd" d="M162.46 174.897C158.159 166.811 140.232 160.489 126.053 156.625C125.497 166.203 117.526 173.806 107.741 173.806C97.9578 173.806 89.985 166.203 89.4309 156.625C75.25 160.489 57.3249 166.811 53.022 174.897C47.5778 194.113 43.0239 218.528 43.0239 218.528H172.458C172.458 218.528 169.384 192.349 162.46 174.897Z" fill="#FC8B56"/>
<path fill-rule="evenodd" clip-rule="evenodd" d="M162.016 175.899C161.943 175.711 161.871 175.525 161.797 175.338C161.871 175.524 161.943 175.711 162.016 175.899Z" fill="#E6A02E"/>
<path fill-rule="evenodd" clip-rule="evenodd" d="M107.634 179.135C97.3483 179.135 88.9666 171.315 88.3831 161.462C75.5918 164.871 59.9282 170.149 52.8721 176.829C52.9991 176.359 53.1262 175.888 53.2533 175.42C57.5296 167.103 75.3439 160.6 89.4373 156.625C89.9879 166.477 97.9115 174.298 107.634 174.298C117.359 174.298 125.281 166.477 125.833 156.625C139.925 160.6 157.741 167.103 162.015 175.42C162.099 175.635 162.179 175.847 162.26 176.064C162.378 176.381 162.494 176.702 162.61 177.023C155.657 170.249 139.802 164.905 126.887 161.462C126.304 171.315 117.922 179.135 107.634 179.135Z" fill="#F77C42"/>
<path fill-rule="evenodd" clip-rule="evenodd" d="M83.8237 158.227C85.6347 170.067 95.6386 179.135 107.74 179.135C119.843 179.135 129.846 170.067 131.658 158.227C129.809 157.654 127.984 157.121 126.217 156.625C125.657 166.562 117.614 174.45 107.74 174.45C97.8684 174.45 89.8235 166.562 89.2645 156.625C87.4966 157.121 85.6729 157.654 83.8237 158.227Z" fill="#ED6829"/>
<path fill-rule="evenodd" clip-rule="evenodd" d="M113.369 132.708C113.369 132.708 112.545 129.894 107.741 129.894C103.349 129.894 102.114 132.708 102.114 132.708H113.369Z" fill="#FFD28D"/>
</g>
<path d="M60 31.5614C60 42.9551 67.891 46.4173 78.2119 48.2528V77.1598C78.2119 79.2834 76.1817 81 78.1963 81C78.1963 81 98.3252 77.1925 107.839 77.1925C117.756 77.1925 143.023 82.2822 143.023 82.2822C144.174 81 143.792 79.2834 143.792 77.1598V48.2528C154.109 46.4134 162 42.9551 162 31.5614C162 18.8543 152.196 14.5205 140.141 14.5205H131.897C127.281 7.56594 119.641 3 111 3C102.359 3 94.7153 7.56594 90.1031 14.5205H81.8551C69.8 14.5243 60 18.8543 60 31.5614Z" fill="#FFE5BE"/>
<mask id="mask1_0_4" style="mask-type:luminance" maskUnits="userSpaceOnUse" x="60" y="3" width="102" height="80">
<path d="M60 31.5614C60 42.9551 67.891 46.4173 78.2119 48.2528V77.1598C78.2119 79.2834 76.1817 81 78.1963 81C78.1963 81 98.3252 77.1925 107.839 77.1925C117.756 77.1925 143.023 82.2822 143.023 82.2822C144.174 81 143.792 79.2834 143.792 77.1598V48.2528C154.109 46.4134 162 42.9551 162 31.5614C162 18.8543 152.196 14.5205 140.141 14.5205H131.897C127.281 7.56594 119.641 3 111 3C102.359 3 94.7153 7.56594 90.1031 14.5205H81.8551C69.8 14.5243 60 18.8543 60 31.5614Z" fill="white"/>
</mask>
<g mask="url(#mask1_0_4)">
<path d="M108.445 77.1925V3L48.3198 18.0323L57.3188 84.7387L84.4932 89.0942L108.445 77.1925Z" fill="#F9D7A2"/>
</g>
</svg>
