<svg width="34" height="30" viewBox="0 0 34 30" fill="none" xmlns="http://www.w3.org/2000/svg">
<path opacity="0.4" d="M10.0987 25.2455C7.7557 23.392 6.08711 20.8195 5.34995 17.9244C5.30062 17.7284 5.14305 17.5782 4.94494 17.5384C3.54919 17.2549 2.54614 16.0277 2.54614 14.6035C2.54614 13.1792 3.54919 11.952 4.94494 11.6685C5.14305 11.6287 5.30062 11.4785 5.34995 11.2826C6.08711 8.3874 7.7557 5.81493 10.0987 3.96139C12.2835 2.22515 14.9561 1.21481 17.7431 1.07154C17.4948 1.05829 17.2452 1.05087 16.9942 1.05087C13.947 1.03954 10.9868 2.06621 8.60092 3.96184C6.25791 5.81538 4.58931 8.38785 3.85215 11.283C3.80283 11.479 3.64526 11.6291 3.44715 11.669C2.05139 11.9524 1.04834 13.1797 1.04834 14.6039C1.04834 16.0282 2.05139 17.2554 3.44715 17.5389C3.64526 17.5787 3.80283 17.7289 3.85215 17.9248C4.58931 20.82 6.25791 23.3925 8.60092 25.246C10.9868 27.1415 13.9471 28.168 16.9943 28.1565C17.2452 28.1565 17.4948 28.149 17.7432 28.1358C14.9561 27.9925 12.2835 26.982 10.0987 25.2455Z" fill="#FC8E56"/>
<path fill-rule="evenodd" clip-rule="evenodd" d="M26.0362 3.13792C28.4747 5.06719 30.2378 7.72069 31.0716 10.7162C32.8052 11.2141 33.9995 12.7999 33.9995 14.6036C33.9995 16.4073 32.8052 17.993 31.0716 18.4909C30.2378 21.4865 28.4747 24.14 26.0362 26.0693C20.7326 30.2504 13.2541 30.25 7.95099 26.0684C5.51213 24.1382 3.74912 21.4836 2.91606 18.487C1.18867 17.985 0.000488281 16.4024 0.000488281 14.6036C0.000488281 12.8047 1.18867 11.2221 2.91606 10.7201C3.74915 7.72362 5.51215 5.069 7.95099 3.1389C13.2541 -1.04268 20.7326 -1.04308 26.0362 3.13792ZM30.1361 17.9272C30.1856 17.7307 30.3439 17.5804 30.5426 17.541C31.943 17.2611 32.951 16.0316 32.951 14.6036C32.951 13.1755 31.943 11.946 30.5426 11.6661C30.3439 11.6268 30.1856 11.4764 30.1361 11.2799C29.3982 8.38537 27.7293 5.8136 25.3862 3.96066C20.4636 0.0804516 13.5228 0.0807921 8.60058 3.96149C6.25757 5.81502 4.58897 8.3875 3.85181 11.2826C3.80249 11.4786 3.64492 11.6288 3.44681 11.6686C2.05105 11.9521 1.048 13.1793 1.048 14.6036C1.048 16.0278 2.05105 17.255 3.44681 17.5385C3.64492 17.5783 3.80249 17.7285 3.85181 17.9245C4.58897 20.8196 6.25757 23.3921 8.60058 25.2456C13.5228 29.1263 20.4636 29.1267 25.3862 25.2465C27.7293 23.3935 29.3982 20.8218 30.1361 17.9272Z" fill="#FC8E56"/>
<path fill-rule="evenodd" clip-rule="evenodd" d="M25.7899 14.9925C25.4835 15.7323 24.7617 16.2146 23.961 16.2146C22.8682 16.2133 21.9827 15.3278 21.9814 14.235C21.9814 13.4343 22.4638 12.7125 23.2035 12.4061C23.9432 12.0997 24.7946 12.2691 25.3608 12.8352C25.9269 13.4014 26.0963 14.2528 25.7899 14.9925ZM24.8212 13.8788C24.6771 13.5308 24.3376 13.304 23.961 13.304C23.447 13.3045 23.0305 13.721 23.0299 14.235C23.0299 14.6116 23.2567 14.9511 23.6046 15.0953C23.9526 15.2394 24.3531 15.1598 24.6194 14.8935C24.8857 14.6272 24.9654 14.2267 24.8212 13.8788Z" fill="#FEC368"/>
<path fill-rule="evenodd" clip-rule="evenodd" d="M11.868 14.5126C11.5616 15.2523 10.8398 15.7346 10.0391 15.7346C8.94636 15.7333 8.06081 14.8478 8.05957 13.755C8.05957 12.9544 8.54188 12.2325 9.28159 11.9261C10.0213 11.6197 10.8727 11.7891 11.4389 12.3552C12.005 12.9214 12.1744 13.7728 11.868 14.5126ZM10.9702 13.755C10.9702 13.2408 10.5534 12.8239 10.0391 12.8239V12.8242C9.52525 12.8248 9.10877 13.2411 9.10803 13.755C9.10803 14.2692 9.5249 14.6861 10.0391 14.6861C10.5534 14.6861 10.9702 14.2692 10.9702 13.755Z" fill="#FEC368"/>
<path d="M22.5398 18.8484C22.5398 20.8276 21.4839 22.6563 19.77 23.6459C18.056 24.6354 15.9443 24.6354 14.2304 23.6459C12.5164 22.6563 11.4606 20.8276 11.4606 18.8484C11.4606 18.5589 11.2259 18.3242 10.9363 18.3242C10.6468 18.3242 10.4121 18.5589 10.4121 18.8484C10.4121 21.2021 11.6678 23.377 13.7061 24.5539C15.7445 25.7307 18.2558 25.7307 20.2942 24.5539C22.3326 23.377 23.5882 21.2021 23.5882 18.8484C23.5882 18.5589 23.3535 18.3242 23.064 18.3242C22.7745 18.3242 22.5398 18.5589 22.5398 18.8484Z" fill="#FEC368"/>
<path d="M11.5575 7.29568C11.6966 7.29584 11.83 7.24056 11.9282 7.14209L14.6216 4.44867C14.8263 4.24394 14.8263 3.912 14.6216 3.70726C14.4169 3.50253 14.0849 3.50253 13.8802 3.70726L11.1868 6.40068C11.0368 6.55061 10.992 6.7761 11.0731 6.972C11.1543 7.1679 11.3454 7.29563 11.5575 7.29561V7.29568Z" fill="#FEC368"/>
<path d="M15.4423 7.2957C15.5813 7.29587 15.7148 7.24059 15.813 7.1421L18.5063 4.44868C18.6387 4.31624 18.6905 4.12321 18.642 3.94229C18.5935 3.76137 18.4522 3.62006 18.2713 3.57159C18.0904 3.52311 17.8973 3.57483 17.7649 3.70727L15.0715 6.40076C14.9216 6.55068 14.8767 6.77616 14.9579 6.97205C15.039 7.16795 15.2301 7.29568 15.4422 7.2957H15.4423Z" fill="#FEC368"/>
<path d="M19.327 7.29568C19.4661 7.29584 19.5995 7.24056 19.6977 7.14209L22.3911 4.44867C22.5959 4.24394 22.5959 3.912 22.3911 3.70726C22.1864 3.50253 21.8545 3.50253 21.6497 3.70726L18.9563 6.40068C18.8064 6.5506 18.7615 6.77607 18.8426 6.97197C18.9238 7.16786 19.1149 7.29559 19.3269 7.29561L19.327 7.29568Z" fill="#FEC368"/>
</svg>
