<svg width="25" height="20" viewBox="0 0 25 20" fill="none" xmlns="http://www.w3.org/2000/svg">
<path d="M4.09357 0H0.818713C0.366784 0 0 0.366784 0 0.818713V4.09357C0 4.5455 0.366784 4.91228 0.818713 4.91228C1.27064 4.91228 1.63743 4.5455 1.63743 4.09357V1.63743H4.09357C4.5455 1.63743 4.91228 1.27064 4.91228 0.818713C4.91228 0.366784 4.5455 0 4.09357 0Z" fill="white"/>
<path d="M23.7425 14.7368C23.2906 14.7368 22.9238 15.1036 22.9238 15.5555V18.0117H20.4676C20.0157 18.0117 19.6489 18.3785 19.6489 18.8304C19.6489 19.2823 20.0157 19.6491 20.4676 19.6491H23.7425C24.1944 19.6491 24.5612 19.2823 24.5612 18.8304V15.5555C24.5612 15.1036 24.1944 14.7368 23.7425 14.7368Z" fill="white"/>
<path d="M23.7425 0H20.4676C20.0157 0 19.6489 0.366784 19.6489 0.818713C19.6489 1.27064 20.0157 1.63743 20.4676 1.63743H22.9238V4.09357C22.9238 4.5455 23.2906 4.91228 23.7425 4.91228C24.1944 4.91228 24.5612 4.5455 24.5612 4.09357V0.818713C24.5612 0.366784 24.1944 0 23.7425 0Z" fill="white"/>
<path d="M4.09357 18.0117H1.63743V15.5555C1.63743 15.1036 1.27064 14.7368 0.818713 14.7368C0.366784 14.7368 0 15.1036 0 15.5555V18.8304C0 19.2823 0.366784 19.6491 0.818713 19.6491H4.09357C4.5455 19.6491 4.91228 19.2823 4.91228 18.8304C4.91228 18.3785 4.5455 18.0117 4.09357 18.0117Z" fill="white"/>
<rect x="3.2749" y="3.2749" width="1.63743" height="13.0994" fill="white"/>
<rect x="6.5498" y="3.2749" width="1.63743" height="9.82456" fill="white"/>
<rect x="9.82471" y="3.2749" width="1.63743" height="9.82456" fill="white"/>
<rect x="13.0996" y="3.2749" width="1.63743" height="13.0994" fill="white"/>
<rect x="16.3745" y="3.2749" width="1.63743" height="9.82456" fill="white"/>
<rect x="19.6489" y="3.2749" width="1.63743" height="13.0994" fill="white"/>
<rect x="6.5498" y="14.7368" width="1.63743" height="1.63743" fill="white"/>
<rect x="9.82471" y="14.7368" width="1.63743" height="1.63743" fill="white"/>
<rect x="16.3745" y="14.7368" width="1.63743" height="1.63743" fill="white"/>
</svg>
