<svg width="34" height="26" viewBox="0 0 34 26" fill="none" xmlns="http://www.w3.org/2000/svg">
<path opacity="0.4" d="M4.45298 10.4336V9.67394C4.4536 9.06613 4.9458 8.57362 5.5536 8.57208L30.0298 8.54841C30.0197 8.54841 30.0095 8.54688 29.9994 8.54688H29.9982L3.97953 8.57208C3.37173 8.57331 2.87952 9.06613 2.87891 9.67394V10.4336C3.36957 11.3215 4.30818 11.869 5.32272 11.8589C5.58957 11.8595 5.85489 11.8229 6.11129 11.7504C5.40511 11.5499 4.80838 11.0758 4.45298 10.4336Z" fill="#FC8E56"/>
<path opacity="0.4" d="M10.2327 10.339C10.1516 10.1819 9.98957 10.0835 9.81279 10.0835C9.63601 10.0838 9.4743 10.1825 9.39345 10.3399C9.2923 10.5351 9.16902 10.7184 9.02637 10.8859C9.55639 11.51 10.3367 11.8663 11.1554 11.8583C11.4216 11.8589 11.6863 11.8224 11.9424 11.7504C11.2006 11.5392 10.5805 11.0276 10.2327 10.339Z" fill="#FC8E56"/>
<path opacity="0.4" d="M27.732 10.3382C27.6505 10.1817 27.4888 10.0837 27.3123 10.084C27.1358 10.0843 26.9741 10.183 26.893 10.3401C26.7918 10.5353 26.6685 10.7185 26.5259 10.8861C27.0559 11.5111 27.8365 11.868 28.6561 11.86C28.9217 11.8604 29.1861 11.8238 29.4416 11.7515C28.6995 11.5397 28.0797 11.0272 27.732 10.3382Z" fill="#FC8E56"/>
<path opacity="0.4" d="M21.8994 10.3395C21.8182 10.1824 21.6562 10.084 21.4797 10.084H21.4791C21.3026 10.0843 21.1406 10.1827 21.0595 10.3398C20.9583 10.535 20.835 10.7185 20.6924 10.8861C21.2227 11.5108 22.003 11.8674 22.8223 11.8594C23.0882 11.8597 23.3532 11.8235 23.6093 11.7512C22.8672 11.54 22.2471 11.0281 21.8994 10.3395Z" fill="#FC8E56"/>
<path opacity="0.4" d="M16.0659 10.3402C16.0622 10.3328 16.0582 10.3252 16.0539 10.3181C15.9669 10.1696 15.8061 10.0798 15.6339 10.0841C15.4618 10.0884 15.3056 10.1862 15.2266 10.3393C15.1251 10.5348 15.0018 10.7184 14.8589 10.8862C15.3889 11.5109 16.1692 11.8676 16.9885 11.8596C17.2547 11.8599 17.5194 11.8236 17.7755 11.7514C17.0337 11.5405 16.4136 11.0286 16.0659 10.3402Z" fill="#FC8E56"/>
<path opacity="0.4" d="M24.3962 12.8041C25.1565 12.805 25.8993 12.5747 26.5258 12.1437C26.2298 11.9402 25.9648 11.6952 25.7388 11.416C25.1996 12.0825 24.4476 12.5431 23.6089 12.7205C23.8677 12.7758 24.1315 12.8038 24.3962 12.8041Z" fill="#FC8E56"/>
<path opacity="0.4" d="M18.5627 12.8039C19.323 12.8048 20.0658 12.5742 20.6917 12.1426C20.3957 11.939 20.1307 11.6937 19.9047 11.4146C19.3658 12.0811 18.6141 12.5419 17.7754 12.7199C18.0343 12.7753 18.298 12.8035 18.5627 12.8039Z" fill="#FC8E56"/>
<path opacity="0.4" d="M30.23 12.8048C30.5233 12.8048 30.8156 12.7707 31.1009 12.703V11.9019C30.6259 12.3095 30.0563 12.5914 29.4438 12.7212C29.7024 12.7765 29.9659 12.8045 30.23 12.8048Z" fill="#FC8E56"/>
<path opacity="0.4" d="M6.89672 12.8039C7.65732 12.8048 8.40008 12.5742 9.02633 12.1426C8.73027 11.939 8.46526 11.6937 8.23929 11.4146C7.70005 12.0814 6.94806 12.5425 6.10938 12.7202C6.36824 12.7756 6.63202 12.8035 6.89672 12.8039Z" fill="#FC8E56"/>
<path opacity="0.4" d="M2.87891 11.9019V21.0628H4.45298V12.7021C3.87193 12.565 3.33207 12.2905 2.87891 11.9019V11.9019Z" fill="#FC8E56"/>
<path opacity="0.4" d="M12.7294 12.803C13.4897 12.8042 14.2322 12.5739 14.8584 12.1432C14.5624 11.9397 14.2973 11.6947 14.0714 11.4155C13.5324 12.0814 12.7808 12.542 11.9424 12.7194C12.2009 12.7747 12.465 12.803 12.7294 12.803Z" fill="#FC8E56"/>
<path fill-rule="evenodd" clip-rule="evenodd" d="M29.8826 18.1655C29.8826 18.9636 29.2358 19.6102 28.438 19.6102C27.6405 19.6092 26.9946 18.963 26.9937 18.1658C26.9937 17.368 27.6402 16.7212 28.438 16.7212C29.2358 16.7212 29.8826 17.3677 29.8826 18.1655ZM28.9382 18.1655C28.9382 17.8894 28.7141 17.6656 28.438 17.6656C28.1619 17.6659 27.9384 17.8898 27.9381 18.1658C27.9381 18.4419 28.1619 18.6657 28.438 18.6657C28.7144 18.6657 28.9382 18.4419 28.9382 18.1655Z" fill="#FEC368"/>
<path fill-rule="evenodd" clip-rule="evenodd" d="M6.89875 18.1655C6.89875 18.9636 6.2519 19.6102 5.4541 19.6102C4.65692 19.6092 4.01069 18.963 4.00977 18.1658C4.00977 17.368 4.6563 16.7212 5.4541 16.7212C6.2519 16.7212 6.89875 17.3677 6.89875 18.1655ZM5.9543 18.1655C5.9543 17.8894 5.73049 17.6656 5.4541 17.6656C5.17802 17.6659 4.95452 17.8898 4.95421 18.1658C4.95421 18.4419 5.17802 18.6657 5.45441 18.6657C5.73049 18.6657 5.9543 18.4419 5.9543 18.1655Z" fill="#FEC368"/>
<path fill-rule="evenodd" clip-rule="evenodd" d="M12.6444 18.1655C12.6444 18.9636 11.9975 19.6102 11.1997 19.6102C10.4022 19.6092 9.75599 18.963 9.75537 18.1658C9.75506 17.368 10.4019 16.7212 11.1997 16.7212C11.9975 16.7212 12.6444 17.3677 12.6444 18.1655ZM11.6999 18.1655C11.6999 17.8894 11.4758 17.6656 11.1997 17.6656C10.9236 17.6659 10.6998 17.8898 10.6998 18.1658C10.6998 18.4419 10.9236 18.6657 11.1997 18.6657C11.4761 18.6657 11.6999 18.4419 11.6999 18.1655Z" fill="#FEC368"/>
<path fill-rule="evenodd" clip-rule="evenodd" d="M15.5015 18.1655C15.5015 17.3677 16.1483 16.7212 16.9461 16.7212C17.7436 16.7221 18.3898 17.3683 18.3904 18.1658C18.3904 18.9636 17.7439 19.6102 16.9461 19.6102C16.1483 19.6102 15.5015 18.9633 15.5015 18.1655ZM16.4459 18.1655C16.4459 18.4419 16.67 18.6657 16.9461 18.6657C17.2222 18.6654 17.4457 18.4416 17.446 18.1658C17.4463 17.8894 17.2222 17.6656 16.9461 17.6656C16.6697 17.6656 16.4459 17.8894 16.4459 18.1655Z" fill="#FEC368"/>
<path fill-rule="evenodd" clip-rule="evenodd" d="M24.136 18.1655C24.1364 18.9633 23.4895 19.6102 22.6917 19.6102C21.8942 19.6092 21.248 18.963 21.2471 18.1658C21.2471 17.368 21.8939 16.7212 22.6917 16.7212C23.4895 16.7212 24.136 17.3677 24.136 18.1655ZM23.1919 18.1655C23.1919 17.8894 22.9678 17.6656 22.6917 17.6656C22.4156 17.6659 22.1921 17.8898 22.1918 18.1658C22.1918 18.4419 22.4156 18.6657 22.6917 18.6657C22.9681 18.6657 23.1919 18.4419 23.1919 18.1655Z" fill="#FEC368"/>
<path fill-rule="evenodd" clip-rule="evenodd" d="M17.3365 0.235406L18.6566 2.1781V2.17779C19.0348 2.73456 19.1184 3.44104 18.8807 4.07098C18.6428 4.70092 18.1134 5.1756 17.4616 5.34408V8.07319C17.4616 8.33389 17.2501 8.54541 16.9894 8.54541C16.7284 8.54541 16.5172 8.33389 16.5172 8.07319V5.36437C15.8429 5.22141 15.2843 4.75195 15.027 4.11279C14.7697 3.47333 14.8478 2.74808 15.2351 2.1781L16.5553 0.235406C16.6432 0.105975 16.7892 0.0288086 16.9457 0.0288086C17.1022 0.0288086 17.2485 0.105975 17.3365 0.235406ZM16.2294 4.20625C16.6761 4.57579 17.3306 4.54505 17.7404 4.13524C18.1214 3.75371 18.1779 3.15513 17.8754 2.70873L16.9457 1.34095L16.016 2.70873C15.6905 3.18833 15.783 3.83671 16.2294 4.20625Z" fill="#FEC368"/>
<path fill-rule="evenodd" clip-rule="evenodd" d="M24.1419 0.235406L25.4621 2.1781V2.17779C25.8405 2.73456 25.9241 3.44104 25.6862 4.07098C25.4485 4.70092 24.9191 5.1756 24.267 5.34408V8.07319C24.267 8.33389 24.0558 8.54541 23.7948 8.54541C23.5341 8.54541 23.3226 8.33389 23.3226 8.07319V5.36437C22.6487 5.22141 22.0898 4.75226 21.8325 4.11279C21.5754 3.47333 21.6535 2.74808 22.0406 2.1781L23.361 0.235406C23.449 0.106282 23.595 0.0288086 23.7515 0.0288086C23.9077 0.0288086 24.054 0.106282 24.1419 0.235406ZM23.0348 4.20656C23.4815 4.5761 24.1361 4.54536 24.5462 4.13524C24.9274 3.75371 24.984 3.15513 24.6809 2.70873L23.7515 1.34095L22.8218 2.70873C22.4959 3.18833 22.5881 3.83702 23.0348 4.20656Z" fill="#FEC368"/>
<path fill-rule="evenodd" clip-rule="evenodd" d="M10.6559 8.07319C10.6559 8.33389 10.4444 8.54541 10.1837 8.54541C9.9227 8.54541 9.71149 8.33389 9.71149 8.07319V5.36437C9.03728 5.22141 8.47867 4.75195 8.22135 4.11279C7.96402 3.47333 8.04211 2.74808 8.42948 2.1781L9.74961 0.235406C9.83754 0.105975 9.98388 0.0288086 10.1401 0.0288086C10.2965 0.0288086 10.4429 0.105975 10.5308 0.235406L11.8509 2.17779C12.2291 2.73456 12.3127 3.44104 12.0751 4.07098C11.8371 4.70092 11.3077 5.1756 10.6559 5.34408V8.07319ZM10.1401 1.34095L9.21068 2.70873C8.89217 3.17726 8.97211 3.80905 9.39698 4.18381C9.82155 4.55827 10.4586 4.55827 10.8834 4.18381C11.3083 3.80905 11.3879 3.17726 11.0697 2.70873L10.1401 1.34095Z" fill="#FEC368"/>
<path fill-rule="evenodd" clip-rule="evenodd" d="M1.43388 23.9522H2.46656C2.69314 25.0817 3.68462 25.8952 4.83659 25.8964H29.1422C30.2942 25.8952 31.2856 25.0817 31.5122 23.9522H32.5449C33.3387 23.9463 33.9788 23.3013 33.9788 22.5075C33.9788 21.714 33.3387 21.069 32.5449 21.0632H32.0453V9.64932C32.0453 8.51919 31.1292 7.60303 29.999 7.60303H29.9972L3.97853 7.62793C2.84963 7.63039 1.93531 8.54563 1.93408 9.67453V21.0629H1.43388C0.64039 21.0687 0 21.7137 0 22.5072C0 23.301 0.64039 23.946 1.43388 23.9519V23.9522ZM29.1422 24.952H4.83659C4.20634 24.951 3.64619 24.5492 3.44359 23.9522H30.5352C30.3326 24.5492 29.7728 24.951 29.1422 24.952ZM29.9978 8.54716L3.97915 8.57207C3.37135 8.57391 2.87945 9.06673 2.87883 9.67453V10.4342C3.38703 11.3319 4.34592 11.8789 5.37737 11.8592C6.40851 11.8395 7.34588 11.2566 7.81964 10.3404C7.9005 10.1833 8.06252 10.0843 8.23899 10.0843C8.41576 10.084 8.57778 10.1824 8.65895 10.3395C9.14193 11.2729 10.1051 11.8589 11.1559 11.8589C12.2068 11.8589 13.17 11.2729 13.6526 10.3395C13.732 10.1864 13.8881 10.089 14.0603 10.0843C14.2325 10.08 14.3932 10.1698 14.4799 10.3186C14.4842 10.3254 14.4886 10.3334 14.4922 10.3404C14.9749 11.2738 15.9381 11.8598 16.9889 11.8598C18.0398 11.8598 19.0026 11.2738 19.4856 10.3404C19.5668 10.1833 19.7285 10.085 19.9053 10.0847H19.9056C20.0824 10.0847 20.2444 10.183 20.3252 10.3401C20.8079 11.2735 21.7711 11.8598 22.8219 11.8601C23.873 11.8601 24.8362 11.2741 25.3192 10.3407C25.4001 10.1836 25.5621 10.085 25.7386 10.0847C25.915 10.0843 26.0767 10.1824 26.1582 10.3389C26.6314 11.256 27.5694 11.8398 28.6014 11.8595C29.6332 11.8795 30.5927 11.3316 31.1009 10.4333V9.64902C31.1009 9.04029 30.6074 8.54716 29.999 8.54716H29.9978ZM2.87853 11.9019C3.55888 12.4854 4.42616 12.8055 5.32234 12.8039C6.45463 12.8061 7.52696 12.2954 8.23868 11.4146C8.95224 12.293 10.0233 12.803 11.155 12.803C12.2864 12.8033 13.3578 12.2936 14.0717 11.4155C14.7834 12.2957 15.856 12.8064 16.9883 12.8039C18.1203 12.8064 19.1926 12.2954 19.9044 11.4149C20.6179 12.2936 21.6893 12.8039 22.8213 12.8042C23.953 12.8042 25.0247 12.2945 25.7386 11.4162C26.378 12.2029 27.3077 12.6982 28.3173 12.7895C29.3267 12.8808 30.3304 12.5607 31.1006 11.9019V21.0629H2.87853V11.9019ZM32.5449 22.0073H1.43388C1.16026 22.0107 0.94014 22.2336 0.94014 22.5072C0.94014 22.7812 1.16026 23.0041 1.43388 23.0074H32.5449C32.8188 23.0041 33.0386 22.7812 33.0386 22.5072C33.0386 22.2336 32.8188 22.0107 32.5449 22.0073Z" fill="#FC8E56"/>
</svg>
