<svg width="27" height="42" viewBox="0 0 27 42" fill="none" xmlns="http://www.w3.org/2000/svg">
<path opacity="0.2" d="M16.5081 14.04C17.4531 12.8221 18.9095 12.1115 20.4509 12.1162H18.7634C16.0853 12.1174 13.8824 14.2258 13.7637 16.9012H15.4512C15.4951 15.8603 15.8648 14.8595 16.5081 14.04Z" fill="#FC8E56"/>
<path opacity="0.2" d="M20.8101 39.1786L18.0479 28.13H18.2941C18.6203 28.13 18.8847 27.8656 18.8847 27.5394C18.8847 27.2132 18.6203 26.9487 18.2941 26.9487H17.7526L17.5455 26.1204H18.7965C19.1227 26.1204 19.3872 25.8559 19.3872 25.5297C19.3872 25.2035 19.1227 24.9391 18.7965 24.9391H17.2503L16.0384 20.0916H17.1889C17.5151 20.0916 17.7796 19.8272 17.7796 19.501C17.7796 19.1748 17.5151 18.9103 17.1889 18.9103H15.7431L15.5983 18.331C15.5775 18.2482 15.5599 18.1651 15.5435 18.082H13.856C13.8724 18.1651 13.8897 18.2482 13.9108 18.331L14.0556 18.9103H15.5014C15.8276 18.9103 16.0921 19.1748 16.0921 19.501C16.0921 19.8272 15.8276 20.0916 15.5014 20.0916H14.3509L15.5628 24.9391H17.1091C17.4353 24.9391 17.6997 25.2035 17.6997 25.5297C17.6997 25.8559 17.4353 26.1204 17.1091 26.1204H15.8581L16.0651 26.9487H16.6067C16.9329 26.9487 17.1973 27.2132 17.1973 27.5394C17.1973 27.8656 16.9329 28.13 16.6067 28.13H16.3604L19.1226 39.1786C19.1579 39.3187 19.2227 39.4495 19.3127 39.5624L19.3717 39.6365C19.5692 39.8838 19.8718 40.0235 20.1882 40.0135C20.5045 40.0034 20.7976 39.8448 20.9791 39.5854C20.9854 39.5765 20.9905 39.5669 20.9965 39.5577C20.9084 39.4459 20.8449 39.3167 20.8101 39.1786Z" fill="#FC8E56"/>
<path opacity="0.2" d="M17.2095 18.0816H18.897C19.2232 18.0816 19.4876 17.8172 19.4876 17.491C19.4876 17.1648 19.2232 16.9004 18.897 16.9004H17.2095C17.5357 16.9004 17.8001 17.1648 17.8001 17.491C17.8001 17.8172 17.5357 18.0816 17.2095 18.0816H17.2095Z" fill="#FC8E56"/>
<path opacity="0.3" d="M6.30684 29.1672L8.10858 28.0839C8.38817 27.9158 8.47855 27.5528 8.31045 27.2732C8.14234 26.9936 7.77941 26.9033 7.49981 27.0714L6.70669 27.5483C6.71747 27.7658 6.60778 27.9715 6.42125 28.0837L4.49463 29.2422L4.70261 29.4498L5.49996 28.9703C5.77745 28.8038 6.13724 28.8916 6.30684 29.1672Z" fill="#FEC368"/>
<path opacity="0.3" d="M5.17055 26.3364C5.29755 25.2683 5.91297 24.3195 6.83654 23.768L8.08436 23.0177C8.3814 22.8395 8.70325 22.7063 9.0394 22.6227C8.14116 22.3957 7.18945 22.538 6.39686 23.0177L5.14904 23.768C3.60323 24.6987 3.02019 26.6533 3.80351 28.2787L5.21071 27.4326C5.13975 27.0716 5.1262 26.7017 5.17055 26.3364Z" fill="#FEC368"/>
<path opacity="0.3" d="M16.5374 39.5783L11.5298 34.5802C11.7901 34.4004 11.8624 34.0473 11.6937 33.7796C11.5251 33.5119 11.1754 33.4246 10.9008 33.5817L10.6689 33.7211L10.4609 33.5134L11.0684 33.1483C11.3479 32.9802 11.4383 32.6173 11.2702 32.3377C11.1021 32.0581 10.7392 31.9677 10.4596 32.1358L9.66646 32.6128C9.67723 32.8302 9.56751 33.036 9.38094 33.1481L8.77344 33.5132L8.98151 33.7209L9.21337 33.5815C9.48803 33.4244 9.83769 33.5117 10.0063 33.7794C10.175 34.0471 10.1027 34.4002 9.84238 34.5801L15.5805 40.3072C15.6387 40.3655 15.7089 40.4104 15.7862 40.4389L15.8516 40.4631C16.0209 40.5258 16.2099 40.5051 16.3616 40.4071C16.5133 40.3092 16.6099 40.1455 16.6224 39.9653C16.6279 39.8888 16.6178 39.8121 16.5928 39.7396L16.5374 39.5783Z" fill="#FEC368"/>
<path opacity="0.3" d="M7.2513 30.3099L7.7956 29.9827C7.97646 29.874 8.08558 29.677 8.08183 29.466C8.07809 29.255 7.96206 29.062 7.77745 28.9597C7.59284 28.8575 7.3677 28.8615 7.18683 28.9702L6.39371 29.4473C6.40449 29.6647 6.2948 29.8704 6.10827 29.9826L5.56396 30.3098L7.91145 32.6528L8.77165 32.1356C8.84175 32.0934 8.91989 32.0664 9.00106 32.0561L7.2513 30.3099Z" fill="#FEC368"/>
<path fill-rule="evenodd" clip-rule="evenodd" d="M18.4491 40.3745L18.3901 40.3004C18.1933 40.0554 18.052 39.7705 17.9761 39.4655L12.7643 18.6181C12.3024 16.7708 12.7175 14.8138 13.8893 13.313C15.0612 11.8121 16.8592 10.935 18.7633 10.9351H20.7589C22.6261 10.9351 24.3933 11.7789 25.5673 13.2309C26.7412 14.683 27.1961 16.5877 26.8049 18.4136L22.2927 39.4674C22.0821 40.4495 21.2294 41.1617 20.2255 41.194C20.2015 41.1947 20.1775 41.1951 20.1535 41.1951C19.4896 41.1973 18.8614 40.8948 18.4491 40.3745ZM18.7633 12.1163C17.2219 12.1116 15.7655 12.8222 14.8206 14.0401C14.1773 14.8594 13.8076 15.8601 13.7636 16.9009H17.2094C17.5356 16.9009 17.8 17.1653 17.8 17.4915C17.8 17.8177 17.5356 18.0821 17.2094 18.0821H13.8557C13.8722 18.1652 13.8898 18.2483 13.9106 18.3311L14.0554 18.9104H15.5012C15.8274 18.9104 16.0918 19.1749 16.0918 19.5011C16.0918 19.8273 15.8274 20.0917 15.5012 20.0917H14.3507L15.5626 24.9392H17.1088C17.435 24.9392 17.6994 25.2036 17.6994 25.5298C17.6994 25.856 17.435 26.1204 17.1088 26.1204H15.8578L16.0648 26.9488H16.6064C16.9326 26.9488 17.197 27.2133 17.197 27.5395C17.197 27.8657 16.9326 28.1301 16.6064 28.1301H16.3602L19.1229 39.1786C19.1582 39.3186 19.2229 39.4494 19.3129 39.5623L19.372 39.6364C19.5695 39.8837 19.8721 40.0234 20.1885 40.0134C20.5048 40.0034 20.7979 39.8447 20.9794 39.5854C21.0565 39.4755 21.1107 39.3511 21.1387 39.2198L22.2232 34.1588H21.8489C21.5227 34.1588 21.2583 33.8943 21.2583 33.5681C21.2583 33.242 21.5227 32.9775 21.8489 32.9775H22.4763L22.6535 32.1491H21.5472C21.221 32.1491 20.9566 31.8847 20.9566 31.5585C20.9566 31.2323 21.221 30.9679 21.5472 30.9679H22.9063L24.5769 23.1733H23.3242C22.998 23.1733 22.7336 22.9089 22.7336 22.5827C22.7336 22.2565 22.998 21.9921 23.3242 21.9921H24.8304L25.0076 21.1637H23.6257C23.2995 21.1637 23.0351 20.8992 23.0351 20.573C23.0351 20.2469 23.2995 19.9824 23.6257 19.9824H25.2606L25.6498 18.166C25.9662 16.689 25.5982 15.1482 24.6485 13.9736C23.6989 12.799 22.2694 12.1164 20.7589 12.1163H18.7633Z" fill="#FC8E56"/>
<path fill-rule="evenodd" clip-rule="evenodd" d="M17.2805 3.38056C16.9873 2.45625 17.2349 1.44558 17.9222 0.761481C18.9384 -0.252525 20.5836 -0.252525 21.5998 0.761481C22.2869 1.44567 22.5344 2.45633 22.2411 3.38056L20.3302 10.3476C20.2598 10.604 20.0266 10.7818 19.7607 10.7818C19.4948 10.7818 19.2616 10.604 19.1912 10.3476L17.2805 3.38056ZM21.1049 3.0569C21.1071 3.04897 21.1094 3.04087 21.1121 3.03294C21.2755 2.52696 21.1412 1.97205 20.7645 1.59679C20.3013 1.13372 19.5814 1.04776 19.0222 1.38876C18.463 1.72976 18.2098 2.40914 18.4094 3.03294C18.4121 3.04087 18.4144 3.04897 18.4166 3.0569L19.7604 7.95816L21.1049 3.0569Z" fill="#FC8E56"/>
<path fill-rule="evenodd" clip-rule="evenodd" d="M23.3542 5.81321C23.6767 5.19393 24.3175 4.80609 25.0157 4.80763C25.8791 4.8076 26.6309 5.3968 26.8373 6.23508C27.0436 7.07337 26.6512 7.94425 25.8865 8.34496L21.8751 10.6299C21.644 10.7616 21.3533 10.7225 21.1652 10.5343C20.9771 10.3462 20.9379 10.0556 21.0696 9.82439L23.3542 5.81321ZM25.3116 7.31289C25.3189 7.30875 25.3263 7.30479 25.3338 7.30091C25.6006 7.16348 25.7489 6.87019 25.7015 6.57381C25.6541 6.27744 25.4217 6.04505 25.1253 5.9977C24.8289 5.95036 24.5357 6.09876 24.3983 6.36561C24.3952 6.37207 24.3915 6.37847 24.3879 6.3848C24.3874 6.38575 24.3868 6.38669 24.3863 6.38763L23.1619 8.53734L25.3116 7.31289Z" fill="#FC8E56"/>
<path fill-rule="evenodd" clip-rule="evenodd" d="M14.1714 3.82285C14.9652 3.7059 15.7455 4.10681 16.1127 4.82028C16.117 4.82855 16.121 4.83707 16.1249 4.84568L18.4152 9.87164C18.5288 10.1215 18.4553 10.4168 18.2377 10.5842C18.0201 10.7516 17.7159 10.747 17.5034 10.5731L13.5262 7.31415C12.8266 6.92121 12.4544 6.1268 12.6002 5.33776C12.746 4.54872 13.3775 3.9398 14.1714 3.82285ZM14.1271 6.296C14.1641 6.31503 14.199 6.33794 14.2311 6.36434L16.2866 8.04914L15.0568 5.35015C14.9157 5.08676 14.6218 4.94318 14.3273 4.99366C14.0328 5.04413 13.8035 5.27735 13.7581 5.57271C13.7127 5.86808 13.8613 6.15938 14.1271 6.296Z" fill="#FC8E56"/>
<path d="M12.1668 25.8746L10.9837 26.5859C10.7041 26.754 10.6137 27.1169 10.7818 27.3965C10.9499 27.6761 11.3128 27.7665 11.5924 27.5984L12.7755 26.8871C13.0551 26.719 13.1455 26.3561 12.9774 26.0765C12.8093 25.7969 12.4464 25.7065 12.1668 25.8746Z" fill="#0635C9"/>
<path d="M12.5452 27.358L11.5511 27.9561C11.2715 28.1242 11.1811 28.4871 11.3492 28.7667C11.5173 29.0463 11.8802 29.1367 12.1598 28.9686L13.1544 28.3705C13.434 28.2024 13.5244 27.8394 13.3562 27.5599C13.1881 27.2803 12.8252 27.1899 12.5456 27.358H12.5452Z" fill="#0635C9"/>
<path fill-rule="evenodd" clip-rule="evenodd" d="M15.4408 41.5709L15.3755 41.5468C15.1389 41.4595 14.9241 41.3219 14.7459 41.1434L3.64742 30.0659C2.62924 29.0496 2.13604 27.621 2.31044 26.193C2.48483 24.7651 3.30736 23.4971 4.54019 22.7558L4.77905 22.6124C4.697 22.5853 4.62193 22.5404 4.55917 22.481L0.746772 18.8444C0.0843258 18.2564 -0.12733 17.3104 0.221399 16.4962C0.570129 15.682 1.40092 15.1824 2.2836 15.2562C3.16628 15.33 3.90261 15.9606 4.11131 16.8214L5.53539 21.8936C5.55843 21.9772 5.56263 22.0649 5.54771 22.1504L5.78809 22.0059C5.84893 21.9692 5.91086 21.9354 5.97288 21.9017L5.96082 21.8996L5.96082 21.8996L5.96081 21.8996C5.95226 21.8982 5.94363 21.8968 5.93516 21.8947C5.67698 21.8304 5.49364 21.6014 5.48738 21.3354L5.40782 17.9707C5.37055 17.3147 5.7568 16.7082 6.36709 16.4646C6.97738 16.221 7.67508 16.3947 8.09985 16.8961C8.52462 17.3975 8.58137 18.1142 8.24079 18.6762L6.59286 21.6108C6.5913 21.6135 6.58952 21.6161 6.58775 21.6186C6.58617 21.6209 6.58459 21.6232 6.58316 21.6256C7.7627 21.1914 9.06746 21.251 10.2025 21.7908C11.3376 22.3307 12.2071 23.3053 12.6146 24.4944L17.71 39.3567C17.8936 39.8923 17.8076 40.4835 17.4791 40.9447C17.1506 41.4059 16.6199 41.6803 16.0537 41.6819C15.8445 41.6816 15.6369 41.644 15.4408 41.5709ZM6.93315 17.5365C6.87032 17.5366 6.8087 17.5538 6.75495 17.5863C6.64328 17.653 6.57844 17.7767 6.58713 17.9064L6.58732 17.9096C6.58777 17.917 6.58822 17.9244 6.58822 17.9317L6.61716 19.1545L7.21623 18.088L7.22083 18.0801C7.22348 18.0755 7.22612 18.071 7.22897 18.0664C7.29762 17.9559 7.2985 17.8163 7.23124 17.7049C7.18398 17.6258 7.10701 17.5689 7.01752 17.5469C6.98992 17.5401 6.96159 17.5366 6.93315 17.5365ZM1.55373 17.9816C1.54774 17.9759 1.5415 17.9702 1.53526 17.9647C1.23041 17.6987 1.14765 17.2583 1.33511 16.8998C1.52256 16.5412 1.93137 16.3578 2.32383 16.4563C2.64248 16.5349 2.89009 16.7856 2.96465 17.1052C2.96651 17.1136 2.96862 17.1215 2.9709 17.1296L3.81591 20.1393L1.55373 17.9816ZM5.14895 23.7683C4.22539 24.3198 3.60997 25.2685 3.48297 26.3367C3.40036 27.0014 3.51177 27.6758 3.80376 28.2787L5.81189 27.071C6.09148 26.9029 6.45441 26.9933 6.62252 27.2729C6.79063 27.5525 6.70025 27.9154 6.42065 28.0835L4.49403 29.242L4.70202 29.4496L5.49936 28.9701C5.77896 28.802 6.14189 28.8924 6.31 29.172C6.4781 29.4516 6.38772 29.8145 6.10813 29.9826L5.56383 30.3098L7.91148 32.653L8.77176 32.1364C9.05136 31.9683 9.41429 32.0587 9.5824 32.3383C9.7505 32.6179 9.66012 32.9808 9.38053 33.1489L8.77303 33.514L8.9811 33.7217L9.21296 33.5823C9.48762 33.4252 9.83728 33.5125 10.0059 33.7802C10.1746 34.0479 10.1023 34.401 9.84198 34.5809L15.5801 40.308C15.6383 40.3663 15.7085 40.4112 15.7858 40.4397L15.8512 40.4639C16.0205 40.5266 16.2095 40.5059 16.3612 40.4079C16.5129 40.31 16.6095 40.1462 16.622 39.9661C16.6275 39.8897 16.6174 39.8129 16.5924 39.7404L15.4317 36.3547L15.3668 36.3936C15.186 36.5023 14.9608 36.5063 14.7762 36.4041C14.5916 36.3018 14.4756 36.1088 14.4719 35.8978C14.4681 35.6868 14.5772 35.4898 14.7581 35.3811L15.0398 35.2117L14.9452 34.9358L14.4226 35.2501C14.2417 35.3588 14.0166 35.3628 13.832 35.2605C13.6474 35.1582 13.5314 34.9652 13.5277 34.7542C13.5239 34.5432 13.6331 34.3463 13.8139 34.2376L14.5535 33.7929L12.7732 28.5994L12.159 28.9687C11.8794 29.1368 11.5165 29.0464 11.3484 28.7668C11.1803 28.4872 11.2707 28.1243 11.5503 27.9562L12.3813 27.4564L12.2867 27.1806L11.5918 27.5984C11.411 27.7072 11.1858 27.7111 11.0012 27.6089C10.8166 27.5066 10.7006 27.3136 10.6969 27.1026C10.6932 26.8916 10.8023 26.6947 10.9831 26.5859L11.895 26.0375L11.4972 24.8773C11.1554 23.8802 10.3812 23.091 9.39091 22.73C8.40058 22.369 7.30014 22.4748 6.39678 23.018L5.14895 23.7683Z" fill="#FEC368"/>
</svg>
