<svg width="16" height="16" viewBox="0 0 16 16" fill="none" xmlns="http://www.w3.org/2000/svg">
<path fill-rule="evenodd" clip-rule="evenodd" d="M0 7.93143C0 3.55804 3.55804 0 7.93143 0C12.3048 0 15.8629 3.55804 15.8629 7.93143C15.8629 12.3048 12.3048 15.8629 7.93143 15.8629C3.55804 15.8629 0 12.3048 0 7.93143ZM1.68751 7.93143C1.68751 11.3744 4.48865 14.1752 7.93143 14.1752C11.3742 14.1752 14.1753 11.3744 14.1753 7.93143C14.1753 4.48849 11.3742 1.68767 7.93143 1.68767C4.48865 1.68767 1.68751 4.48849 1.68751 7.93143Z" fill="#FC8B56"/>
<path d="M12.0649 7.68633H8.50046V3.40062C8.50046 3.03997 8.20805 2.74756 7.8474 2.74756C7.48674 2.74756 7.19434 3.03997 7.19434 3.40062V8.3394C7.19434 8.70005 7.48674 8.99246 7.8474 8.99246H12.0649C12.4255 8.99246 12.7179 8.70005 12.7179 8.3394C12.7179 7.97874 12.4255 7.68633 12.0649 7.68633Z" fill="#FC8B56"/>
</svg>
