<svg width="18" height="21" viewBox="0 0 18 21" fill="none" xmlns="http://www.w3.org/2000/svg">
<path fill-rule="evenodd" clip-rule="evenodd" d="M2.77907 0H15.4842C16.737 0 17.7563 1.0193 17.7563 2.27216V18.6951C17.7563 19.9479 16.737 20.9672 15.4842 20.9672H2.77907C1.52614 20.9672 0.506836 19.948 0.506836 18.6951V2.27216C0.506836 1.0193 1.5262 0 2.77907 0ZM11.473 8.0721C11.2883 8.0721 11.106 8.09641 10.9301 8.14383C10.567 7.51603 9.89342 7.11314 9.13185 7.11314C8.37016 7.11314 7.69647 7.51596 7.33324 8.14383C7.15742 8.09641 6.9751 8.0721 6.79043 8.0721C5.64367 8.0721 4.7107 9.00506 4.7107 10.1518C4.7107 11.2986 5.64367 12.2315 6.79043 12.2315C6.83397 12.2315 6.87731 12.2302 6.92037 12.2275V14.5344C6.92037 14.8303 7.1603 15.0702 7.45621 15.0702H10.8072C11.1031 15.0702 11.3431 14.8303 11.3431 14.5344V12.2275C11.3861 12.2302 11.4295 12.2315 11.473 12.2315C12.6197 12.2315 13.5526 11.2985 13.5526 10.1518C13.5526 9.005 12.6197 8.0721 11.473 8.0721ZM11.473 11.1598C11.3207 11.1598 11.1745 11.1268 11.0386 11.0618C10.8725 10.9822 10.6773 10.9936 10.5216 11.0917C10.3659 11.1898 10.2714 11.361 10.2714 11.5451V13.9986H7.99205V11.5451C7.99205 11.361 7.89761 11.1899 7.74188 11.0918C7.58622 10.9936 7.39098 10.9822 7.225 11.0617C7.08883 11.1268 6.94261 11.1598 6.79037 11.1598C6.23457 11.1598 5.78232 10.7076 5.78232 10.1518C5.78232 9.59603 6.2345 9.14378 6.79037 9.14378C6.98447 9.14378 7.17282 9.19904 7.33511 9.30352C7.48227 9.39837 7.66646 9.41518 7.82836 9.34887C7.99031 9.28256 8.10967 9.1413 8.14805 8.97057C8.2504 8.5153 8.66413 8.18489 9.13185 8.18489C9.59937 8.18489 10.0129 8.5153 10.1152 8.9705C10.1536 9.1413 10.2729 9.28256 10.4348 9.34894C10.5967 9.41525 10.781 9.39837 10.9281 9.30359C11.0904 9.19904 11.2788 9.14384 11.473 9.14384C12.0287 9.14384 12.4809 9.59603 12.4809 10.1519C12.4809 10.7078 12.0287 11.1598 11.473 11.1598ZM16.6846 18.695V18.4369L16.6845 17.3652V2.27216C16.6845 1.6102 16.146 1.07168 15.4841 1.07168H8.09748H3.93802H2.77907C2.1171 1.07168 1.57852 1.6102 1.57852 2.27216V17.3652V18.4369V18.695C1.57852 19.3569 2.1171 19.8955 2.77907 19.8955H15.4842C16.1461 19.8955 16.6846 19.357 16.6846 18.695Z" fill="#FC8B56"/>
</svg>
