<svg width="32" height="32" viewBox="0 0 32 32" fill="none" xmlns="http://www.w3.org/2000/svg">
<path opacity="0.4" d="M7.51107 1.71498H5.91107C4.80607 1.70248 3.87545 2.53779 3.7692 3.63779L3.74951 4.03498H5.34951L5.3692 3.63779C5.47545 2.53779 6.40607 1.70248 7.51107 1.71498Z" fill="#FC8E56"/>
<path opacity="0.4" d="M4.71184 4.99463H3.11184C1.92527 4.99463 0.959961 5.99463 0.959961 7.1815V8.67463H2.55996V7.1815C2.55996 5.99463 3.52527 4.99463 4.71184 4.99463Z" fill="#FC8E56"/>
<path opacity="0.4" d="M2.64941 9.63477L2.82691 13.0748H4.42691L4.24941 9.63477H2.64941Z" fill="#FC8E56"/>
<path opacity="0.4" d="M2.87549 14.0347L3.40861 24.5947H5.00861L4.47549 14.0347H2.87549Z" fill="#FC8E56"/>
<path opacity="0.4" d="M5.17984 27.9862L5.05703 25.5547H3.45703L3.57984 27.9862C3.63672 29.1325 4.58172 30.0328 5.72922 30.0347H7.32922C6.18172 30.0328 5.23672 29.1325 5.17984 27.9862Z" fill="#FC8E56"/>
<path fill-rule="evenodd" clip-rule="evenodd" d="M10.8352 23.2327C8.68957 23.2327 6.9502 21.4937 6.9502 19.348V19.3477C6.9502 17.2021 8.68926 15.4627 10.8349 15.4624C12.9802 15.4624 14.7196 17.2015 14.7199 19.3471V19.348C14.7199 21.4937 12.9805 23.2327 10.8352 23.2327ZM10.8477 22.2855C12.4702 22.2858 13.7855 20.9708 13.7855 19.3483C13.7839 17.7265 12.4696 16.4118 10.8474 16.4102C9.2252 16.4105 7.9102 17.7258 7.9102 19.3483C7.91051 20.9705 9.22551 22.2855 10.8477 22.2855Z" fill="#FC8E56"/>
<path fill-rule="evenodd" clip-rule="evenodd" d="M1.68813 9.63493H0.48C0.215 9.63493 0 9.38119 0 9.11587V7.18181C0.001875 5.58931 1.20438 4.25462 2.78781 4.08681L2.81094 3.59743L2.81172 3.58665L2.8125 3.57587C2.95656 1.97369 4.3025 0.748373 5.91125 0.754935H15.785C17.3934 0.748373 18.7397 1.97369 18.8834 3.57587C18.8844 3.58306 18.885 3.58994 18.885 3.59712L18.9081 4.08119C20.5191 4.21837 21.7578 5.56494 21.76 7.18181V9.11587C21.76 9.38119 21.545 9.63493 21.28 9.63493H20.0081L19.7984 13.629L19.36 13.5877V14.0349H2.87562L3.40875 24.5949H16.64V25.5549H3.45719L3.58 27.9865C3.63687 29.1327 4.58187 30.0331 5.72937 30.0349H15.9666C16.4784 30.0349 16.9734 29.8527 17.3628 29.5212L17.9856 30.2518C17.4225 30.7315 16.7066 30.9952 15.9666 30.9949H5.72937C4.07531 31.0052 2.70594 29.7121 2.62125 28.0602L1.68813 9.63493ZM2.82687 13.0749H18.8691L19.0469 9.63494H2.64937L2.82687 13.0749ZM5.91125 1.71494H15.785C16.89 1.70244 17.8206 2.53775 17.9269 3.63775L17.9466 4.03493H3.74969L3.76937 3.63775C3.87562 2.53775 4.80625 1.70244 5.91125 1.71494ZM3.11188 4.99494C1.92531 4.99494 0.96 5.99494 0.96 7.18181V8.67494H20.8V7.18181C20.8 5.99494 19.8347 4.99494 18.6481 4.99494H3.11188Z" fill="#FC8E56"/>
<path fill-rule="evenodd" clip-rule="evenodd" d="M30.1598 19.0748H31.5198C31.6667 19.0817 31.803 19.1529 31.8923 19.2698C31.9839 19.3889 32.0192 19.5417 31.9895 19.6886L29.7039 30.6139C29.6573 30.8361 29.4614 30.9951 29.2342 30.9948H17.8055C17.5776 30.9933 17.382 30.8326 17.3358 30.6092L15.0501 19.6801C15.0217 19.5358 15.057 19.3864 15.147 19.2704C15.2373 19.1545 15.3733 19.0829 15.5198 19.0748H16.8798V15.1629C16.877 15.0361 16.9248 14.9133 17.0126 14.8217C17.1008 14.7301 17.2214 14.6773 17.3483 14.6748H19.1198V12.9779C19.1198 12.7129 19.3689 12.5148 19.6342 12.5148H21.4398V11.1539C21.4398 11.0267 21.4905 10.9048 21.5805 10.8148C21.6705 10.7251 21.7926 10.6745 21.9198 10.6748H23.7483C24.0155 10.6736 24.2342 10.8867 24.2398 11.1539V12.8348H25.3598V11.3723C25.353 11.2511 25.3973 11.1326 25.482 11.0454C25.5667 10.9586 25.6842 10.9111 25.8055 10.9148H27.6342C27.7555 10.9111 27.873 10.9586 27.9576 11.0454C28.0423 11.1326 28.0867 11.2511 28.0798 11.3723V13.0748H29.6914C29.8176 13.0758 29.9383 13.1276 30.0264 13.2183C30.1145 13.3089 30.1626 13.4311 30.1598 13.5573V19.0748ZM29.1998 19.0748V14.0348H28.0798V19.0748H29.1998ZM27.1198 11.8748V19.0748H26.5461C26.4773 19.0748 26.431 19.1089 26.38 19.1465C26.3611 19.1604 26.3415 19.1749 26.3198 19.1883V11.8748H27.1198ZM25.3598 20.3389V13.7948H24.2398V20.8654C24.6451 20.7679 25.0264 20.5889 25.3598 20.3389ZM23.2798 11.6348V20.9411C22.9776 20.9176 22.6805 20.8476 22.3998 20.7329V11.6348H23.2798ZM21.4398 20.0992V13.4748H20.0798V19.0748H20.4914C20.6773 19.0823 20.8439 19.1929 20.9223 19.3617C21.0539 19.6339 21.2286 19.8829 21.4398 20.0992ZM17.8398 15.6348H19.1198V19.0748H17.8398V15.6348ZM18.1955 30.0348H28.8442L30.9292 20.0348H26.8314C26.1545 21.2348 24.887 21.877 23.5201 21.877C22.1517 21.877 20.8836 21.2348 20.2067 20.0348H16.1108L18.1955 30.0348Z" fill="#FEC368"/>
<path d="M19.1357 25.2349C19.1357 25.4999 19.3504 25.7149 19.6157 25.7149H27.4245C27.6898 25.7149 27.9045 25.4999 27.9045 25.2349C27.9045 24.9699 27.6898 24.7549 27.4245 24.7549H19.6157C19.3504 24.7549 19.1357 24.9699 19.1357 25.2349Z" fill="#FEC368"/>
<path d="M25.0217 26.9946H19.6157C19.3504 26.9946 19.1357 27.2096 19.1357 27.4746C19.1357 27.7396 19.3504 27.9546 19.6157 27.9546H25.0217C25.287 27.9546 25.5017 27.7396 25.5017 27.4746C25.5017 27.2096 25.287 26.9946 25.0217 26.9946Z" fill="#FEC368"/>
</svg>
