<svg width="22" height="20" viewBox="0 0 22 20" fill="none" xmlns="http://www.w3.org/2000/svg">
<g opacity="0.5">
<path d="M21.6296 7.69726L11.2666 0.109716C11.0668 -0.036572 10.7953 -0.036572 10.5956 0.109716L0.232523 7.69726C-0.0205991 7.88262 -0.0755958 8.23805 0.109762 8.49117C0.29512 8.74429 0.650592 8.7992 0.903671 8.61393L10.9311 1.27203L20.9584 8.61389C21.0596 8.68797 21.1771 8.72363 21.2935 8.72363C21.4684 8.72363 21.641 8.64314 21.7523 8.49113C21.9377 8.23805 21.8827 7.88262 21.6296 7.69726Z" fill="#FC8B56"/>
<path d="M18.8833 8.74268C18.5696 8.74268 18.3153 8.99699 18.3153 9.31071V18.3522H13.7711V13.4168C13.7711 11.8506 12.4969 10.5764 10.9308 10.5764C9.36464 10.5764 8.09041 11.8507 8.09041 13.4168V18.3523H3.54621V9.31075C3.54621 8.99704 3.29185 8.74272 2.97819 8.74272C2.66452 8.74272 2.41016 8.99704 2.41016 9.31075V18.9204C2.41016 19.2341 2.66452 19.4884 2.97819 19.4884H8.65844C8.95716 19.4884 9.20161 19.2576 9.22425 18.9646C9.22561 18.9513 9.22647 18.9368 9.22647 18.9204V13.4168C9.22647 12.4771 9.991 11.7125 10.9308 11.7125C11.8705 11.7125 12.6351 12.4771 12.6351 13.4168V18.9204C12.6351 18.9367 12.6359 18.951 12.6373 18.9641C12.6597 19.2573 12.9042 19.4884 13.2031 19.4884H18.8833C19.1971 19.4884 19.4514 19.2341 19.4514 18.9204V9.31075C19.4513 8.99699 19.197 8.74268 18.8833 8.74268Z" fill="#FC8B56"/>
</g>
</svg>
