<svg width="22" height="20" viewBox="0 0 22 20" fill="none" xmlns="http://www.w3.org/2000/svg">
<path d="M21.6296 7.69726L11.2666 0.109716C11.0668 -0.036572 10.7953 -0.036572 10.5956 0.109716L0.232523 7.69726C-0.0205991 7.88262 -0.0755958 8.23805 0.109762 8.49117C0.29512 8.74429 0.650592 8.7992 0.903671 8.61393L10.9311 1.27203L20.9584 8.61389C21.0596 8.68797 21.1771 8.72363 21.2935 8.72363C21.4684 8.72363 21.641 8.64314 21.7523 8.49113C21.9377 8.23805 21.8827 7.88262 21.6296 7.69726Z" fill="#FC8B56"/>
<path d="M18.8838 8.74268C18.5701 8.74268 18.3158 8.99699 18.3158 9.31071V18.3522H13.7716V13.4168C13.7716 11.8506 12.4974 10.5764 10.9313 10.5764C9.36513 10.5764 8.0909 11.8507 8.0909 13.4168V18.3523H3.5467V9.31075C3.5467 8.99704 3.29234 8.74272 2.97867 8.74272C2.665 8.74272 2.41064 8.99704 2.41064 9.31075V18.9204C2.41064 19.2341 2.665 19.4884 2.97867 19.4884H8.65892C8.95765 19.4884 9.2021 19.2576 9.22473 18.9646C9.2261 18.9513 9.22695 18.9368 9.22695 18.9204V13.4168C9.22695 12.4771 9.99149 11.7125 10.9313 11.7125C11.871 11.7125 12.6356 12.4771 12.6356 13.4168V18.9204C12.6356 18.9367 12.6364 18.951 12.6378 18.9641C12.6602 19.2573 12.9047 19.4884 13.2036 19.4884H18.8838C19.1975 19.4884 19.4519 19.2341 19.4519 18.9204V9.31075C19.4518 8.99699 19.1975 8.74268 18.8838 8.74268Z" fill="#FC8B56"/>
</svg>
