<svg width="121" height="181" viewBox="0 0 121 181" fill="none" xmlns="http://www.w3.org/2000/svg">
<path d="M98.404 120.652L68.8211 95.2925C67.4885 94.141 66.7199 92.4698 66.711 90.7088V90.4673H54.6487V90.7088C54.6399 92.4698 53.8698 94.141 52.5372 95.2925L22.9543 120.652C16.2796 126.385 12.4366 134.744 12.4307 143.542V144.537C33.7208 142.878 35.7101 132.685 60.6799 132.685C85.6482 132.685 87.639 142.878 108.929 144.537V143.542C108.922 134.744 105.079 126.385 98.404 120.652Z" fill="#FFD28D"/>
<path d="M108.929 21.1089V37.3927C108.925 43.4091 107.13 49.2886 103.773 54.2802H17.5872C14.2285 49.2886 12.4336 43.4091 12.4307 37.3927V21.1089H108.929Z" fill="#FFD28D"/>
<path d="M108.929 144.537V159.826H12.4307V144.537C33.7208 142.878 35.7101 132.686 60.6799 132.686C85.6482 132.686 87.639 142.878 108.929 144.537Z" fill="#FF905C"/>
<path d="M66.7108 90.2257V90.4672H54.6485V90.2257C54.6396 88.4647 53.8695 86.7934 52.537 85.642L22.954 60.282C20.9088 58.5253 19.1035 56.5081 17.5869 54.2803H103.772C102.254 56.5081 100.449 58.5253 98.4038 60.282L68.8208 85.642C67.4882 86.7934 66.7196 88.4647 66.7108 90.2257Z" fill="#FEC368"/>
<path d="M108.929 159.826C113.925 159.826 117.976 163.876 117.976 168.872C117.976 173.868 113.925 177.919 108.929 177.919H12.4305C7.4345 177.919 3.38379 173.868 3.38379 168.872C3.38379 163.876 7.4345 159.826 12.4305 159.826H108.929Z" fill="#FFE8C5"/>
<path d="M108.929 3.01562C113.925 3.01562 117.976 7.06633 117.976 12.0624C117.976 17.0584 113.925 21.1091 108.929 21.1091H12.4305C7.4345 21.1091 3.38379 17.0584 3.38379 12.0624C3.38379 7.06633 7.4345 3.01562 12.4305 3.01562H108.929Z" fill="#FFE8C5"/>
<path d="M60.6799 90.4673V90.7088C60.6711 92.4698 59.901 94.141 58.5684 95.2925L28.9854 120.652C22.3108 126.385 18.4677 134.744 18.4618 143.542V143.783C17.889 143.873 17.3163 143.994 16.7125 144.054C16.3503 144.115 15.9587 144.175 15.567 144.204C14.5716 144.325 13.5159 144.446 12.4307 144.537V143.542C12.4366 134.744 16.2796 126.385 22.9543 120.652L52.5372 95.2925C53.8698 94.141 54.6399 92.4698 54.6487 90.7088V90.4673H60.6799Z" fill="#FEC368"/>
<path d="M23.6183 54.2802H17.5872C14.2285 49.2886 12.4336 43.4091 12.4307 37.3927V21.1089H18.4618V37.3927C18.4648 43.4091 20.2597 49.2886 23.6183 54.2802Z" fill="#FEC368"/>
<path d="M18.4618 143.783V159.826H12.4307V144.537C13.5159 144.446 14.5716 144.325 15.567 144.204C15.9587 144.175 16.3503 144.115 16.7125 144.054C17.3163 143.994 17.889 143.873 18.4618 143.783V143.783Z" fill="#EB743D"/>
<path d="M60.6796 90.2257V90.4672H54.6485V90.2257C54.6396 88.4647 53.8695 86.7934 52.537 85.642L22.954 60.282C20.9088 58.5253 19.1035 56.5081 17.5869 54.2803H23.6181C25.1347 56.5081 26.9399 58.5253 28.9851 60.282L58.5681 85.642C59.9007 86.7934 60.6708 88.4647 60.6796 90.2257Z" fill="#EDB258"/>
<path d="M18.4617 177.919H12.4305C7.4345 177.919 3.38379 173.868 3.38379 168.872C3.38379 163.876 7.4345 159.826 12.4305 159.826H18.4617C13.4657 159.826 9.41494 163.876 9.41494 168.872C9.41494 173.868 13.4657 177.919 18.4617 177.919Z" fill="#FFD596"/>
<path d="M18.4617 21.1091H12.4305C7.4345 21.1091 3.38379 17.0584 3.38379 12.0624C3.38379 7.06633 7.4345 3.01562 12.4305 3.01562H18.4617C13.4657 3.01562 9.41494 7.06633 9.41494 12.0624C9.41494 17.0584 13.4657 21.1091 18.4617 21.1091Z" fill="#FFD596"/>
<path fill-rule="evenodd" clip-rule="evenodd" d="M111.945 143.542V157.238C117.82 158.751 121.651 164.398 120.886 170.415C120.12 176.435 114.996 180.942 108.929 180.935H12.4309C6.36439 180.942 1.24027 176.435 0.473123 170.415C-0.292551 164.398 3.54023 158.751 9.41531 157.238V143.542C9.40942 133.854 13.6427 124.652 21.0005 118.353L50.5806 92.9999C51.2491 92.4271 51.6334 91.5893 51.6334 90.7088V90.2258C51.6334 89.3468 51.2491 88.5104 50.5806 87.9376L21.0005 62.5791C13.6412 56.2815 9.40794 47.0786 9.41531 37.3929V23.6961C3.54023 22.1839 -0.292551 16.5371 0.473123 10.5192C1.24027 4.49982 6.36439 -0.00734424 12.4309 1.79906e-05H108.929C114.996 -0.00734424 120.12 4.49982 120.886 10.5192C121.651 16.5371 117.82 22.1839 111.945 23.6961V37.3929C111.951 47.0801 107.717 56.2829 100.358 62.5821L70.7796 87.9347C70.1097 88.5075 69.7254 89.3453 69.7268 90.2258V90.7088C69.7268 91.5878 70.1111 92.4242 70.7796 92.997L100.358 118.355C107.717 124.653 111.952 133.856 111.945 143.542ZM34.7459 141.473C28.6764 144.45 22.1549 146.403 15.4465 147.251V156.81H105.914V147.251C99.2053 146.403 92.6838 144.45 86.6143 141.473C78.5733 137.45 69.6665 135.467 60.6801 135.701C51.6923 135.467 42.7854 137.45 34.7459 141.473ZM6.39973 12.0623C6.39973 8.73164 9.1002 6.03117 12.4309 6.03117H108.929C112.26 6.03117 114.96 8.73164 114.96 12.0623C114.96 15.393 112.26 18.0935 108.929 18.0935H12.4309C9.1002 18.0935 6.39973 15.393 6.39973 12.0623ZM105.914 24.1246H15.4465V37.3929C15.4435 42.2755 16.7599 47.0683 19.2572 51.2648H102.105C104.6 47.0683 105.915 42.2755 105.914 37.3929V24.1246ZM24.9246 122.933L54.5032 97.5778C56.5101 95.8594 57.6645 93.3504 57.6645 90.7088V90.2258C57.666 87.5857 56.5116 85.0752 54.5032 83.3598L24.9246 57.9983C24.766 57.864 24.6184 57.7182 24.4704 57.5718C24.3765 57.4791 24.2825 57.3862 24.1854 57.296H97.1689C97.0648 57.3915 96.9653 57.4901 96.8659 57.5884L96.8659 57.5885C96.7233 57.7296 96.5812 57.8703 96.4268 58.0013L66.8467 83.3568C64.8442 85.0767 63.6927 87.5857 63.6957 90.2258V90.7088C63.6942 93.3489 64.8486 95.8594 66.8556 97.5748L96.4356 122.936C101.82 127.552 105.178 134.1 105.784 141.168C99.9695 140.323 94.3241 138.566 89.0557 135.963C80.249 131.591 70.5087 129.431 60.6801 129.67C50.85 129.431 41.1113 131.591 32.3031 135.963C27.0361 138.566 21.3907 140.323 15.576 141.168C16.1827 134.1 19.5399 127.552 24.9246 122.933ZM6.39973 168.872C6.39973 172.203 9.1002 174.903 12.4309 174.903H108.929C112.26 174.903 114.96 172.203 114.96 168.872C114.96 165.542 112.26 162.841 108.929 162.841H12.4309C9.1002 162.841 6.39973 165.542 6.39973 168.872Z" fill="#F77C42"/>
<path d="M57.6641 96.4985H63.6952V102.53H57.6641V96.4985Z" fill="#FF905C"/>
<path d="M57.6641 108.561H63.6952V114.592H57.6641V108.561Z" fill="#FF905C"/>
<path d="M57.6641 120.623H63.6952V126.654H57.6641V120.623Z" fill="#FF905C"/>
</svg>
