<svg width="22" height="17" viewBox="0 0 22 17" fill="none" xmlns="http://www.w3.org/2000/svg">
<path d="M20.6023 16.1913H6.10248C5.50487 16.1913 5.02051 15.7069 5.02051 15.1093C5.02051 14.5117 5.50487 14.0273 6.10248 14.0273H20.6019C21.1995 14.0273 21.6839 14.5117 21.6839 15.1093C21.6839 15.7069 21.1999 16.1913 20.6023 16.1913Z" fill="white"/>
<path d="M20.6023 9.39977H6.10248C5.50487 9.39977 5.02051 8.91541 5.02051 8.31781C5.02051 7.7202 5.50487 7.23584 6.10248 7.23584H20.6019C21.1995 7.23584 21.6839 7.7202 21.6839 8.31781C21.6842 8.91541 21.1999 9.39977 20.6023 9.39977Z" fill="white"/>
<path d="M20.6023 2.60827H6.10248C5.50487 2.60827 5.02051 2.12391 5.02051 1.5263C5.02051 0.928697 5.50487 0.444336 6.10248 0.444336H20.6019C21.1995 0.444336 21.6839 0.928697 21.6839 1.5263C21.6839 2.12391 21.1999 2.60827 20.6023 2.60827Z" fill="white"/>
<circle cx="1.45308" cy="1.60982" r="1.45308" fill="white"/>
<circle cx="1.45308" cy="8.31783" r="1.45308" fill="white"/>
<circle cx="1.45308" cy="15.0253" r="1.45308" fill="white"/>
</svg>
