<svg width="15" height="15" viewBox="0 0 15 15" fill="none" xmlns="http://www.w3.org/2000/svg">
<path d="M13.6475 6.14754C14.0369 6.14754 14.3596 6.27561 14.6158 6.53176C14.8719 6.78791 15 7.11065 15 7.5C15 7.88935 14.8719 8.21209 14.6158 8.46824C14.3596 8.72439 14.0369 8.85246 13.6475 8.85246H8.85246V13.6168C8.85246 14.0061 8.72439 14.334 8.46824 14.6004C8.21209 14.8668 7.88935 15 7.5 15C7.11065 15 6.78791 14.8668 6.53176 14.6004C6.27561 14.334 6.14754 14.0061 6.14754 13.6168V8.85246H1.35246C0.963113 8.85246 0.64037 8.72439 0.384221 8.46824C0.128073 8.21209 0 7.88935 0 7.5C0 7.11065 0.128073 6.78791 0.384221 6.53176C0.64037 6.27561 0.963113 6.14754 1.35246 6.14754H6.14754V1.35246C6.14754 0.963113 6.27561 0.64037 6.53176 0.384221C6.78791 0.128073 7.11065 0 7.5 0C7.88935 0 8.21209 0.128073 8.46824 0.384221C8.72439 0.64037 8.85246 0.963113 8.85246 1.35246V6.14754H13.6475Z" fill="#B7B7B7"/>
</svg>
