<svg width="12" height="17" viewBox="0 0 12 17" fill="none" xmlns="http://www.w3.org/2000/svg">
<path fill-rule="evenodd" clip-rule="evenodd" d="M2.21449 16.0715C1.781 16.0715 1.42454 15.7297 1.4064 15.2965L0.867188 3.91357H11.1124L10.5732 15.2965C10.555 15.7297 10.1986 16.0715 9.76509 16.0715H2.21449ZM8.02635 6.41241C7.84489 6.41241 7.69782 6.55951 7.69782 6.74089V13.2442C7.69782 13.4257 7.84497 13.5727 8.02635 13.5727H8.55179C8.73325 13.5727 8.88032 13.4256 8.88032 13.2442V6.74089C8.88032 6.55948 8.73313 6.41241 8.55179 6.41241H8.02635ZM5.39858 6.74089C5.39858 6.55951 5.54565 6.41241 5.72707 6.41241H6.25251C6.43385 6.41241 6.581 6.55948 6.581 6.74089V13.2442C6.581 13.4256 6.43397 13.5727 6.25251 13.5727H5.72707C5.54569 13.5727 5.39858 13.4257 5.39858 13.2442V6.74089ZM3.42775 6.41241C3.24634 6.41241 3.09927 6.55951 3.09927 6.74089V13.2442C3.09927 13.4257 3.24637 13.5727 3.42775 13.5727H3.95323C4.13465 13.5727 4.28172 13.4256 4.28172 13.2442V6.74089C4.28172 6.55948 4.13461 6.41241 3.95323 6.41241H3.42775Z" fill="#B7B7B7"/>
<path d="M11.4718 0.827921H7.98849V0.169377C7.98849 0.0758557 7.91267 0 7.81911 0H4.16124C4.06772 0 3.9919 0.0758557 3.9919 0.169377V0.827882H0.508518C0.22819 0.827882 0.000976562 1.05513 0.000976562 1.33546V2.92997H11.9794V1.3355C11.9794 1.05517 11.7522 0.827921 11.4718 0.827921Z" fill="#B7B7B7"/>
</svg>
