<svg width="20" height="20" viewBox="0 0 20 20" fill="none" xmlns="http://www.w3.org/2000/svg">
<path fill-rule="evenodd" clip-rule="evenodd" d="M2.51313 8.74349C2.51898 3.91702 6.43012 0.00585007 11.2566 0C16.0854 0 20 3.91459 20 8.74349C20 13.5724 16.0854 17.487 11.2566 17.487C9.37351 17.4808 7.54377 16.861 6.0446 15.7215L2.14753 19.6186C1.83392 19.9433 1.36952 20.0736 0.932807 19.9593C0.496098 19.845 0.155048 19.5039 0.0407392 19.0672C-0.0735693 18.6305 0.056653 18.1661 0.381355 17.8525L4.27843 13.9554C3.139 12.4562 2.51927 10.6265 2.51313 8.74349ZM5.01125 8.74349C5.01125 12.1927 7.80737 14.9888 11.2566 14.9888C14.7041 14.9848 17.4978 12.191 17.5019 8.74349C17.5019 5.29428 14.7058 2.49814 11.2566 2.49814C7.80737 2.49814 5.01125 5.29428 5.01125 8.74349Z" fill="white"/>
</svg>
