<svg width="31" height="33" viewBox="0 0 31 33" fill="none" xmlns="http://www.w3.org/2000/svg">
<path opacity="0.4" d="M9.09675 30.6935C8.76338 30.6967 8.44267 30.5667 8.20594 30.332C7.96893 30.0975 7.83576 29.778 7.83576 29.4446V19.7709C7.83576 19.6797 7.84324 19.5886 7.85791 19.4985C6.9835 19.6145 6.32885 20.3586 6.32568 21.2407V30.5373C6.32568 30.9676 6.49769 31.3804 6.80344 31.6833C7.1092 31.9861 7.52339 32.1541 7.95398 32.1498L16.6586 32.0641L17.8336 30.6107L9.09675 30.6935Z" fill="#FC8E56"/>
<path opacity="0.4" d="M23.7155 16.7151H5.92192C5.94665 12.7038 7.70611 9.13543 10.4343 6.8335C6.48194 8.85642 3.74367 13.1767 3.71289 18.1878H27.2744C27.2709 17.6957 27.2413 17.2041 27.1852 16.7151H23.7155Z" fill="#FEC368"/>
<path d="M27.275 18.9368C26.9091 18.9368 26.6123 18.6399 26.6123 18.2741C26.6123 11.6559 21.6244 6.2717 15.4935 6.2717C9.36259 6.2717 4.37473 11.6559 4.37473 18.2741C4.37473 18.6399 4.07818 18.9368 3.71202 18.9368C3.34615 18.9368 3.04932 18.6399 3.04932 18.2741C3.04932 10.9253 8.63171 4.94629 15.4935 4.94629C22.3553 4.94629 27.9377 10.9253 27.9377 18.2741C27.9377 18.6399 27.6411 18.9368 27.275 18.9368Z" fill="#FEC368"/>
<path d="M17.7028 6.12429C17.337 6.12429 17.0401 5.82745 17.0401 5.46158C17.0401 4.60731 16.3478 3.91526 15.4938 3.91526C14.6398 3.91526 13.9475 4.60731 13.9475 5.46158C13.9475 5.82745 13.6509 6.12429 13.2848 6.12429C12.9189 6.12429 12.6221 5.82745 12.6221 5.46158C12.6221 3.87557 13.9078 2.58984 15.4938 2.58984C17.0798 2.58984 18.3655 3.87557 18.3655 5.46158C18.3655 5.82745 18.069 6.12429 17.7028 6.12429Z" fill="#FEC368"/>
<path d="M7.81127 16.1048C7.62374 16.1051 7.44454 16.0257 7.31884 15.8865C7.19286 15.7476 7.13188 15.5615 7.15087 15.3748C7.37838 13.1462 8.63995 11.2079 10.5257 10.1899C10.7342 10.076 10.9876 10.0826 11.1901 10.2069C11.3923 10.3312 11.5128 10.5541 11.5056 10.7914C11.4984 11.029 11.365 11.2441 11.1553 11.356C9.65644 12.1654 8.65231 13.718 8.46967 15.5091C8.43515 15.8471 8.15097 16.1043 7.81127 16.1048Z" fill="#FEC368"/>
<path fill-rule="evenodd" clip-rule="evenodd" d="M5.66243 21.2406V32.1655C5.66243 32.5316 5.95898 32.8282 6.32514 32.8282C6.69101 32.8282 6.98784 32.5316 6.98784 32.1655V21.2406C6.99475 20.6319 7.49005 20.1424 8.0984 20.1424C8.70703 20.1424 9.20205 20.6319 9.20924 21.2406V25.6183C9.20924 26.7272 9.76408 27.5495 10.772 27.9338C11.873 28.3465 13.1121 28.1101 13.9837 27.3208L14.0564 27.2564L22.4671 20.4314C22.4844 20.4176 22.5008 20.403 22.5163 20.3871C23.1767 19.7345 24.1383 19.49 25.0302 19.7486L25.5701 19.9045C25.5842 19.9068 25.5951 19.9174 25.5983 19.9312C25.6026 19.9425 25.5992 19.9554 25.59 19.9629C25.5788 19.975 25.5678 19.9873 25.5578 19.9997L16.1432 31.6474C15.9131 31.9319 15.9574 32.3493 16.2419 32.5794C16.5266 32.8095 16.944 32.7652 17.1741 32.4807L26.5754 20.8494C26.8311 20.5655 26.9557 20.187 26.9183 19.8067C26.8809 19.4262 26.6853 19.0793 26.3792 18.8503H30.2939C30.6601 18.8503 30.9566 18.5535 30.9566 18.1876C30.9566 17.8217 30.6601 17.5249 30.2939 17.5249H0.692981C0.327111 17.5249 0.0302734 17.8217 0.0302734 18.1876C0.0302734 18.5535 0.327111 18.8503 0.692981 18.8503H7.70779C6.53252 19.0387 5.66674 20.0503 5.66243 21.2406ZM8.48929 18.8503H14.7307C14.5632 18.9838 14.403 19.1262 14.2515 19.2775L10.5347 22.6336V21.2406C10.5301 20.0503 9.66427 19.0387 8.48929 18.8503ZM13.2096 26.2365L21.6077 19.4221C21.8343 19.2012 22.0872 19.0091 22.3604 18.85H22.1735C22.1033 18.8748 22.0294 18.8877 21.9549 18.8877C20.5762 18.8854 19.2497 19.4155 18.2519 20.3673L18.2378 20.3802L12.4673 25.5585C12.194 25.7967 11.7801 25.7714 11.5382 25.5016C11.296 25.2318 11.3159 24.8176 11.5822 24.5719L17.3461 19.4C17.5 19.2544 17.6593 19.117 17.8242 18.9875C17.8161 18.9677 17.8089 18.9473 17.8026 18.9268C16.8091 19.0591 15.8869 19.515 15.1788 20.2243C15.1704 20.233 15.1615 20.2413 15.1526 20.2494L10.5347 24.4192V25.6183C10.5347 26.1838 10.7466 26.5057 11.2442 26.6955C11.8839 26.9253 12.5984 26.785 13.1035 26.3299L13.1872 26.2554L13.2096 26.2365Z" fill="#FC8E56"/>
<path d="M20.2798 0.810169V3.2401C20.2798 3.60597 20.5766 3.90281 20.9425 3.90281C21.3087 3.90281 21.6052 3.60597 21.6052 3.2401V0.810169C21.6052 0.444299 21.3087 0.147461 20.9425 0.147461C20.5766 0.147461 20.2798 0.444299 20.2798 0.810169Z" fill="#FC8E56"/>
<path d="M8.64551 0.662708V3.90261C8.64551 4.26848 8.94235 4.56532 9.30822 4.56532C9.67437 4.56532 9.97092 4.26848 9.97092 3.90261V0.662708C9.97092 0.296838 9.67437 0 9.30822 0C8.94235 0 8.64551 0.296838 8.64551 0.662708Z" fill="#FC8E56"/>
<path d="M4.5957 3.23986V7.06883C4.5957 7.4347 4.89254 7.73154 5.25841 7.73154C5.62457 7.73154 5.92112 7.4347 5.92112 7.06883V3.23986C5.92112 2.87399 5.62457 2.57715 5.25841 2.57715C4.89254 2.57715 4.5957 2.87399 4.5957 3.23986Z" fill="#FC8E56"/>
<path d="M24.3296 2.94542V6.5535C24.3296 6.91937 24.6264 7.21621 24.9923 7.21621C25.3585 7.21621 25.655 6.91937 25.655 6.5535V2.94542C25.655 2.57955 25.3585 2.28271 24.9923 2.28271C24.6264 2.28271 24.3296 2.57955 24.3296 2.94542Z" fill="#FC8E56"/>
</svg>
