<svg width="21" height="21" viewBox="0 0 21 21" fill="none" xmlns="http://www.w3.org/2000/svg">
<g opacity="0.5">
<path fill-rule="evenodd" clip-rule="evenodd" d="M18.4397 8.0405L19.9127 8.2904C20.5397 8.39562 20.9956 8.93486 20.9868 9.57056V11.4163C20.9868 12.052 20.5309 12.5912 19.904 12.6965L18.4309 12.942C18.2818 13.433 18.0802 13.9109 17.839 14.3712L18.7071 15.59C19.0754 16.1073 19.014 16.8132 18.5668 17.2603L17.2603 18.5668C17.0148 18.8123 16.6904 18.9482 16.344 18.9482C16.0722 18.9482 15.8092 18.8649 15.59 18.7071L14.3756 17.839C13.9196 18.0802 13.4418 18.2775 12.9463 18.4309L12.6965 19.904C12.5912 20.5309 12.052 20.9868 11.4163 20.9868H9.56618C8.93048 20.9868 8.39123 20.5309 8.28601 19.904L8.0405 18.4309C7.56263 18.2818 7.09791 18.0933 6.65511 17.861L5.42317 18.7378C5.20397 18.8956 4.9453 18.9789 4.67349 18.9789C4.32714 18.9789 4.00271 18.843 3.7572 18.5975L2.45073 17.291C1.99917 16.8438 1.94217 16.138 2.31044 15.6207L3.17411 14.4194C2.9286 13.9635 2.72693 13.4856 2.57349 12.9946L1.08288 12.7403C0.45595 12.6351 0 12.0958 0 11.4601V9.6144C0 8.97871 0.45595 8.43946 1.08288 8.33424L2.53841 8.08873C2.68747 7.59332 2.88038 7.11545 3.1215 6.65511L2.24468 5.42317C1.87641 4.90585 1.93779 4.2 2.38497 3.75282L3.69582 2.44635C3.93695 2.20083 4.26576 2.06493 4.61211 2.06493C4.88392 2.06493 5.14697 2.14823 5.36618 2.30605L6.57182 3.17411C7.02777 2.9286 7.50564 2.72693 7.99666 2.57349L8.25094 1.08288C8.35616 0.45595 8.89541 0 9.53111 0H11.3768C12.0125 0 12.5518 0.45595 12.657 1.08288L12.9025 2.53841C13.4154 2.69186 13.9109 2.89791 14.3843 3.14781L15.6031 2.27975C15.8223 2.12192 16.081 2.03862 16.3528 2.03862C16.6992 2.03862 17.0236 2.17453 17.2691 2.42004L18.5756 3.72651C19.0271 4.1737 19.0841 4.87954 18.7159 5.39687L17.8478 6.61127C18.0889 7.06722 18.2862 7.54509 18.4397 8.0405ZM19.7154 11.5303C19.7724 11.5215 19.8119 11.4733 19.8119 11.4163H19.8163V9.57056C19.8163 9.51357 19.7768 9.46534 19.7198 9.45658L17.8785 9.1453C17.6505 9.11023 17.462 8.93925 17.405 8.71127C17.2384 8.06681 16.9841 7.44864 16.6422 6.87432C16.5238 6.67265 16.5326 6.41837 16.6685 6.22985L17.7514 4.70856C17.782 4.66033 17.7777 4.59896 17.7382 4.5595L16.4317 3.25303C16.401 3.22234 16.366 3.21795 16.3484 3.21795C16.3265 3.21795 16.3046 3.22672 16.2827 3.23987L14.7701 4.32714C14.5772 4.46305 14.3273 4.47182 14.1257 4.35344C13.5382 4.0071 12.9069 3.74843 12.2449 3.58184C12.0169 3.52484 11.8459 3.33633 11.8065 3.10397L11.4996 1.27578C11.4908 1.21879 11.4426 1.17933 11.3856 1.17933H9.53987C9.48288 1.17933 9.43466 1.21879 9.42589 1.27578L9.11023 3.13027C9.07077 3.35825 8.89979 3.54238 8.6762 3.60376C8.03173 3.77035 7.41357 4.0334 6.84363 4.37537C6.64196 4.49374 6.38768 4.48497 6.19478 4.34906L4.68225 3.27056C4.66472 3.25741 4.6428 3.24864 4.61649 3.24864C4.59457 3.24864 4.56388 3.25303 4.53319 3.28372L3.22672 4.59019C3.18726 4.62965 3.18288 4.69541 3.21357 4.73925L4.30522 6.27369C4.44113 6.46221 4.45428 6.71211 4.33591 6.91378C3.99833 7.4881 3.74843 8.11065 3.58622 8.75511C3.52923 8.98309 3.34071 9.15407 3.10835 9.19353L1.28017 9.50042C1.22317 9.50919 1.18372 9.55741 1.18372 9.6144V11.4601C1.18372 11.5171 1.22317 11.5653 1.28017 11.5741L3.13466 11.8898C3.36263 11.9292 3.54676 12.1002 3.60814 12.3238C3.77474 12.9683 4.03779 13.5864 4.37975 14.1564C4.49812 14.358 4.48935 14.6123 4.35344 14.8052L3.27495 16.3177C3.24426 16.366 3.24864 16.4273 3.2881 16.4668L4.59457 17.7733C4.62526 17.804 4.66033 17.8084 4.67787 17.8084C4.69979 17.8084 4.72171 17.7996 4.74363 17.7864L6.27808 16.6948C6.37891 16.6203 6.50167 16.5852 6.62004 16.5852C6.72088 16.5852 6.8261 16.6115 6.91816 16.6641C7.48372 16.9885 8.08873 17.2384 8.71566 17.4006C8.93925 17.4576 9.11023 17.6418 9.14969 17.8741L9.45658 19.7155C9.46534 19.7724 9.51357 19.8119 9.57056 19.8119H11.4163C11.4733 19.8119 11.5215 19.7724 11.5303 19.7155L11.8415 17.8741C11.8766 17.6461 12.0476 17.4576 12.2756 17.4006C12.92 17.234 13.5382 16.9797 14.1125 16.6378C14.3142 16.5194 14.5685 16.5282 14.757 16.6641L16.2783 17.747C16.2958 17.7601 16.3177 17.7689 16.344 17.7689C16.366 17.7689 16.3967 17.7645 16.4273 17.7338L17.7338 16.4273C17.7733 16.3879 17.7777 16.3221 17.747 16.2783L16.6641 14.7526C16.5282 14.5597 16.5194 14.3098 16.6378 14.1081C16.9797 13.5338 17.234 12.9157 17.4006 12.2712C17.4576 12.0476 17.6418 11.8766 17.8741 11.8372L19.7154 11.5303Z" fill="#FC8B56"/>
<path fill-rule="evenodd" clip-rule="evenodd" d="M5.9668 10.4912C5.9668 7.99226 7.99665 5.9624 10.4956 5.9624C12.9946 5.9624 15.0244 7.99226 15.0244 10.4912C15.0244 12.9902 12.9946 15.02 10.4956 15.02C7.99665 15.02 5.9668 12.9902 5.9668 10.4912ZM7.15051 10.4912C7.15051 12.3369 8.64989 13.8363 10.4956 13.8363C12.3413 13.8363 13.8407 12.3369 13.8407 10.4912C13.8407 8.64549 12.3413 7.14612 10.4956 7.14612C8.64989 7.14612 7.15051 8.64549 7.15051 10.4912Z" fill="#FC8B56"/>
</g>
</svg>
