<svg width="12" height="13" viewBox="0 0 12 13" fill="none" xmlns="http://www.w3.org/2000/svg">
<path d="M9.81818 8.59322C9.23542 8.59322 8.68756 8.82237 8.27542 9.23859C8.16109 9.35405 8.06269 9.48097 7.9776 9.61515L4.20742 7.30402C4.30713 7.05195 4.36364 6.77785 4.36364 6.4903C4.36364 6.20276 4.30713 5.92866 4.20764 5.67659L7.97869 3.38308C8.36618 3.99739 9.04495 4.40678 9.81818 4.40678C11.0212 4.40678 12 3.41834 12 2.20339C12 0.988441 11.0212 0 9.81818 0C8.61513 0 7.63636 0.988441 7.63636 2.20339C7.63636 2.48014 7.68938 2.7441 7.78189 2.98824L4.00604 5.28483C3.61593 4.68463 2.94436 4.28692 2.18182 4.28692C0.978764 4.28692 0 5.27536 0 6.4903C0 7.70525 0.978764 8.6937 2.18182 8.6937C2.94436 8.6937 3.61571 8.29598 4.00582 7.69578L7.78124 10.01C7.68742 10.2581 7.63636 10.5232 7.63636 10.7966C7.63636 11.3851 7.86327 11.9386 8.27542 12.3546C8.68756 12.7708 9.23542 13 9.81818 13C10.4009 13 10.9488 12.7708 11.3609 12.3546C11.7731 11.9386 12 11.3851 12 10.7966C12 10.2081 11.7731 9.65459 11.3609 9.23859C10.9488 8.82237 10.4009 8.59322 9.81818 8.59322Z" fill="#FC8B56"/>
</svg>
