<svg width="10" height="10" viewBox="0 0 10 10" fill="none" xmlns="http://www.w3.org/2000/svg">
<path d="M9.06684 3.50508C8.99797 3.28394 8.79295 3.132 8.50428 3.08821L6.15144 2.73135L5.09914 0.506271C4.97006 0.233304 4.76823 0.0766602 4.54545 0.0766602C4.32268 0.0766602 4.12084 0.233304 3.99177 0.506344L2.93961 2.73135L0.5867 3.08821C0.297963 3.132 0.0928707 3.28394 0.0240674 3.50508C-0.0447359 3.72622 0.0355808 3.97494 0.244488 4.18739L1.94709 5.91937L1.54509 8.36508C1.4937 8.67786 1.5813 8.86527 1.66383 8.96748C1.76066 9.08735 1.90187 9.15337 2.06146 9.15337C2.18152 9.15337 2.30921 9.11666 2.44106 9.04435L4.54545 7.88972L6.64999 9.04442C6.78177 9.11674 6.90946 9.15337 7.02952 9.15337H7.02958C7.18911 9.15337 7.33039 9.08735 7.42721 8.96748C7.50968 8.86534 7.59735 8.67786 7.54589 8.36508L7.14396 5.91937L8.84649 4.18739C9.05533 3.97494 9.13564 3.72622 9.06684 3.50508Z" fill="#FC8B56"/>
</svg>
