<svg width="31" height="36" viewBox="0 0 31 36" fill="none" xmlns="http://www.w3.org/2000/svg">
<path opacity="0.4" d="M4.24468 22.6488C4.04814 22.4523 3.83535 22.2729 3.6086 22.1122C3.4577 21.3572 3.36789 20.5912 3.34002 19.8218H1.09131C1.11917 20.5912 1.20899 21.3572 1.35988 22.1122C1.58664 22.2729 1.79942 22.4523 1.99597 22.6488C2.41168 23.0449 2.71203 23.3309 3.37023 23.3309C3.89081 23.3309 4.18726 23.1515 4.49459 22.8807C4.41341 22.8092 4.33156 22.7316 4.24468 22.6488Z" fill="#FC8E56"/>
<path opacity="0.4" d="M5.61887 24.3803C5.67134 24.3803 5.72104 24.378 5.77089 24.3755C6.06126 24.2473 6.37322 24.1751 6.69039 24.1626C7.13016 23.9658 7.44401 23.6686 7.71685 23.4087C7.80372 23.3262 7.88558 23.2483 7.96668 23.1768C7.65936 22.9059 7.36298 22.7266 6.84232 22.7266C6.1842 22.7266 5.88377 23.0127 5.46806 23.4087C5.20616 23.6581 4.9067 23.9422 4.49414 24.1387C4.84585 24.3036 5.23048 24.3862 5.61887 24.3803Z" fill="#FC8E56"/>
<path opacity="0.4" d="M4.21302 24.2514C3.94082 24.3393 3.65624 24.3829 3.3702 24.3804C2.82 24.3912 2.28146 24.2211 1.8374 23.896C2.03265 24.4719 2.26452 25.0348 2.53158 25.5812C2.78141 25.741 3.0738 25.8213 3.3702 25.8116C3.96236 25.8116 4.26504 25.5797 4.62244 25.2449C4.47407 24.9199 4.3376 24.5887 4.21302 24.2514Z" fill="#FC8E56"/>
<path opacity="0.4" d="M5.48756 26.8573C5.53088 26.8591 5.57458 26.8603 5.61896 26.8603C6.69692 26.8603 7.26247 26.3215 7.71694 25.8887C7.80381 25.8062 7.88566 25.7283 7.96677 25.6567C7.65944 25.3859 7.36306 25.2065 6.84241 25.2065C6.18421 25.2065 5.88386 25.4927 5.46815 25.8887C5.01368 26.3215 4.44813 26.8603 3.37017 26.8603C3.32579 26.8603 3.28209 26.8591 3.23877 26.8573C5.85601 31.0821 10.4714 33.6536 15.4411 33.6559C15.8223 33.6559 16.1998 33.6409 16.5738 33.611C12.0143 33.252 7.89787 30.7443 5.48756 26.8573Z" fill="#FC8E56"/>
<path fill-rule="evenodd" clip-rule="evenodd" d="M20.4965 17.8648C19.1762 17.8592 17.9587 17.1507 17.3016 16.0055C16.6865 14.9366 16.6791 13.6802 17.2817 12.645C17.2901 12.6304 17.2992 12.6163 17.3091 12.6027L20.067 8.76489C20.1656 8.62772 20.3242 8.54639 20.4931 8.54639C20.6621 8.54639 20.8207 8.62772 20.9192 8.76489L23.6822 12.6094C23.6917 12.6226 23.7004 12.6361 23.7087 12.6501C24.3122 13.6783 24.3078 14.9297 23.697 15.9972C23.0414 17.1465 21.8222 17.8586 20.499 17.8648H20.4965ZM20.4931 9.97028L18.1769 13.1934C17.7714 13.9062 17.7835 14.7389 18.2112 15.4819C18.6806 16.3021 19.5515 16.8102 20.4965 16.8152H20.4983C21.4455 16.8097 22.3177 16.2991 22.7861 15.4758C23.2101 14.7348 23.22 13.907 22.8152 13.2009L20.4931 9.97028Z" fill="#FEC368"/>
<path d="M20.4766 16.4291C21.0591 16.4306 21.6182 16.2002 22.0307 15.7889C22.4431 15.3776 22.675 14.8191 22.6751 14.2366C22.6751 13.9468 22.4402 13.7119 22.1504 13.7119C21.8606 13.7119 21.6257 13.9468 21.6257 14.2366C21.6269 14.5397 21.5063 14.8306 21.291 15.0439C21.0746 15.2596 20.7813 15.3802 20.4759 15.379C20.1861 15.379 19.9512 15.614 19.9512 15.9037C19.9512 16.1935 20.1861 16.4284 20.4759 16.4284L20.4766 16.4291Z" fill="#FEC368"/>
<path fill-rule="evenodd" clip-rule="evenodd" d="M13.5683 0.893312L16.884 5.50655C16.8934 5.51974 16.9022 5.53331 16.9106 5.54725C17.6152 6.74837 17.6097 8.21048 16.8956 9.45859C16.1276 10.8052 14.6993 11.6395 13.1491 11.647H13.1463C11.5994 11.6405 10.1731 10.8103 9.40331 9.46849C8.68417 8.21865 8.67502 6.75031 9.37909 5.54073C9.3875 5.52617 9.39663 5.51203 9.40645 5.49838L12.7161 0.893312C12.8147 0.756133 12.9733 0.674805 13.1422 0.674805C13.3111 0.674805 13.4697 0.756133 13.5683 0.893312ZM13.1483 10.5975C14.3226 10.5908 15.404 9.95791 15.9849 8.93734C16.5137 8.01312 16.525 6.97983 16.0171 6.09849L13.1422 2.09855L10.274 6.08949C9.76572 6.97901 9.77967 8.01837 10.3129 8.94491C10.895 9.96172 11.9747 10.5914 13.1463 10.5975H13.1483Z" fill="#FEC368"/>
<path d="M15.1312 6.87354C14.8415 6.87354 14.6065 7.10845 14.6065 7.39824C14.608 7.78987 14.4522 8.1657 14.174 8.44134C13.8948 8.71985 13.5162 8.87561 13.1219 8.87414C12.8321 8.87414 12.5972 9.10906 12.5972 9.39884C12.5972 9.68863 12.8321 9.92354 13.1219 9.92354C13.7931 9.92539 14.4374 9.66009 14.9128 9.18618C15.3881 8.71227 15.6553 8.0687 15.6554 7.39749C15.655 7.1082 15.4205 6.87382 15.1312 6.87354V6.87354Z" fill="#FEC368"/>
<path fill-rule="evenodd" clip-rule="evenodd" d="M0.0327327 19.2969C0.0327327 19.0071 0.267649 18.7722 0.557433 18.7722L30.3257 18.772C30.6155 18.772 30.8504 19.0069 30.8504 19.2967C30.8525 21.3833 30.4284 23.4483 29.6041 25.3652C29.5913 25.41 29.5725 25.4528 29.5483 25.4926C27.1582 30.9127 21.7349 34.7055 15.4414 34.7055C9.43611 34.7055 4.22291 31.252 1.68172 26.2269C1.65332 26.1859 1.63098 26.141 1.61538 26.0936C0.571793 23.98 0.0301839 21.6541 0.0327327 19.2969ZM29.4695 22.3674C29.6526 21.5301 29.7603 20.6781 29.7912 19.8216H1.09158C1.11944 20.5911 1.20926 21.357 1.36015 22.1121C1.58691 22.2727 1.79969 22.4522 1.99624 22.6486C2.41195 23.0446 2.71238 23.3307 3.3705 23.3307C4.02862 23.3307 4.32898 23.0446 4.74469 22.6486L4.74469 22.6486C5.19908 22.2157 5.76486 21.6769 6.84274 21.6769C7.92063 21.6769 8.48618 22.2157 8.94057 22.6486L8.94099 22.649C9.35649 23.0448 9.65663 23.3307 10.3146 23.3307C10.9728 23.3307 11.2732 23.0447 11.6889 22.6486C12.1433 22.2157 12.709 21.677 13.787 21.677C14.8648 21.677 15.4303 22.2155 15.8848 22.6484L15.885 22.6486L15.8851 22.6486C16.3008 23.0446 16.6011 23.3307 17.2593 23.3307C17.9175 23.3307 18.2179 23.0447 18.6337 22.6486C19.0881 22.2157 19.6539 21.677 20.7319 21.677C21.8098 21.677 22.3754 22.2157 22.8299 22.6486L22.83 22.6487C23.2457 23.0447 23.546 23.3307 24.2042 23.3307C24.8626 23.3307 25.163 23.0447 25.5788 22.6486L25.579 22.6484C26.0336 22.2156 26.5992 21.677 27.6771 21.677C28.5284 21.677 29.0597 22.0129 29.4695 22.3674ZM28.8542 24.4236L28.854 24.4235C28.9683 24.126 29.0727 23.8241 29.167 23.5177L29.1666 23.5173C29.1277 23.4809 29.089 23.4445 29.0517 23.4086C28.6359 23.0126 28.3354 22.7265 27.6771 22.7265C27.0188 22.7265 26.7184 23.0126 26.3026 23.4086C25.8481 23.8415 25.2823 24.3803 24.2042 24.3803C23.1264 24.3803 22.5609 23.8417 22.1064 23.4088L22.1061 23.4086L22.106 23.4085C21.6903 23.0125 21.3901 22.7265 20.7319 22.7265C20.0736 22.7265 19.7733 23.0126 19.3575 23.4085L19.3574 23.4086L19.3574 23.4086C18.9029 23.8415 18.3373 24.3803 17.2593 24.3803C16.1814 24.3803 15.6158 23.8416 15.1614 23.4087L15.1613 23.4086C14.7456 23.0126 14.4452 22.7265 13.787 22.7265C13.1288 22.7265 12.8284 23.0126 12.4127 23.4086L12.4127 23.4086C11.9582 23.8415 11.3924 24.3803 10.3146 24.3803C9.23681 24.3803 8.67126 23.8415 8.2168 23.4085L8.21678 23.4085L8.21649 23.4082C7.80093 23.0124 7.50071 22.7264 6.84274 22.7264C6.18462 22.7264 5.88419 23.0125 5.46848 23.4085C5.01409 23.8414 4.44846 24.3802 3.3705 24.3802C2.82029 24.3911 2.28175 24.2209 1.8377 23.8958C2.03295 24.4718 2.26482 25.0346 2.53188 25.581C2.78171 25.7408 3.0741 25.8211 3.3705 25.8114C4.02862 25.8114 4.32898 25.5253 4.74469 25.1293L4.74469 25.1293C5.19916 24.6964 5.76486 24.1576 6.84274 24.1576C7.92061 24.1576 8.48616 24.6964 8.94055 25.1293L8.94057 25.1293L8.941 25.1297C9.35649 25.5255 9.65664 25.8114 10.3146 25.8114C10.9728 25.8114 11.2732 25.5252 11.6889 25.1293L11.6889 25.1293C12.1433 24.6964 12.7093 24.1576 13.7873 24.1576C14.8651 24.1576 15.4305 24.6961 15.885 25.1289L15.8853 25.1292L15.8856 25.1295C16.3012 25.5253 16.6016 25.8113 17.2596 25.8113C17.9177 25.8113 18.2182 25.5252 18.6338 25.1294L18.6338 25.1294L18.634 25.1292C19.0884 24.6964 19.6542 24.1576 20.7322 24.1576C21.8101 24.1576 22.3757 24.6963 22.8302 25.1292L22.8302 25.1292L22.8306 25.1296C23.2461 25.5253 23.5464 25.8113 24.2045 25.8113C24.8629 25.8113 25.1633 25.5253 25.5791 25.1293L25.5792 25.1292L25.5795 25.129C26.034 24.6962 26.5996 24.1576 27.6774 24.1576C28.0852 24.1513 28.4886 24.2425 28.854 24.4235L28.854 24.4236H28.8542ZM3.2391 26.8575C5.85633 31.0823 10.4716 33.6537 15.4414 33.6561C21.1809 33.6561 26.1439 30.2711 28.4407 25.3926C28.2074 25.2634 27.9437 25.1993 27.6771 25.2068C27.0189 25.2068 26.7185 25.4929 26.3028 25.8887L26.3026 25.8889C25.8481 26.3218 25.2823 26.8606 24.2042 26.8606C23.1264 26.8606 22.5609 26.322 22.1064 25.8892L22.1061 25.8889L22.1057 25.8885C21.6902 25.4928 21.3899 25.2068 20.7319 25.2068C20.0736 25.2068 19.7732 25.4929 19.3574 25.8889L19.3574 25.889C18.9029 26.3218 18.3372 26.8605 17.2593 26.8605C16.1814 26.8605 15.6158 26.3218 15.1613 25.8889L15.1613 25.8889L15.161 25.8886C14.7454 25.4928 14.4451 25.2067 13.787 25.2067C13.1289 25.2067 12.8286 25.4928 12.413 25.8886L12.4127 25.8889C11.9582 26.3217 11.3924 26.8605 10.3146 26.8605C9.23691 26.8605 8.67136 26.3218 8.21692 25.889L8.21678 25.8889L8.21635 25.8884C7.80086 25.4927 7.50071 25.2067 6.84274 25.2067C6.18468 25.2067 5.88432 25.4928 5.46874 25.8886L5.46848 25.8889L5.46834 25.889C5.0139 26.3218 4.44835 26.8605 3.3705 26.8605C3.32613 26.8605 3.28243 26.8593 3.2391 26.8575Z" fill="#FC8E56"/>
</svg>
